<?xml version="1.0" encoding="UTF-8" standalone="no"?>
<!DOCTYPE svg PUBLIC "-//W3C//DTD SVG 1.1//EN" "http://www.w3.org/Graphics/SVG/1.1/DTD/svg11.dtd">
<svg xmlns="http://www.w3.org/2000/svg" xmlns:xlink="http://www.w3.org/1999/xlink" version="1.1" width="300pt" height="140pt" viewBox="160 120 300 140">
<g enable-background="new">
<symbol id="font_0_2">
<path d="M .136 .11100001 C .101 .052 .067 .032 .019000002 .029000001 C .008000001 .028 0 .028 0 .010000001 C 0 .004 .004999999 0 .012000002 0 C .030000002 0 .075 .002 .093 .002 C .122 .002 .15400002 0 .18200001 0 C .18800003 0 .20000002 0 .20000002 .019000002 C .20000002 .028 .192 .029000001 .18600002 .029000001 C .16300002 .031000002 .144 .039 .144 .063 C .144 .07700001 .15 .08800001 .16300002 .11000001 L .239 .23600002 L .494 .23600002 C .49500004 .22700002 .49500004 .21900001 .49600003 .21000001 C .49900005 .18400002 .51100006 .080000009 .51100006 .061000006 C .51100006 .031000002 .46 .029000001 .444 .029000001 C .433 .029000001 .42200003 .029000001 .42200003 .011000001 C .42200003 0 .43100003 0 .437 0 C .45400004 0 .474 .002 .49100004 .002 L .54800006 .002 C .609 .002 .65300008 0 .65400007 0 C .6610001 0 .67200008 0 .67200008 .019000002 C .67200008 .029000001 .66300007 .029000001 .64800009 .029000001 C .59300008 .029000001 .59200009 .038000004 .58900007 .068 L .52800008 .69200006 C .526 .712 .5220001 .71400007 .51100006 .71400007 C .50100007 .71400007 .49500004 .712 .48600004 .697 L .136 .11100001 M .256 .26500003 L .45700003 .601 L .49100004 .26500003 L .256 .26500003 Z "/>
</symbol>
<use xlink:href="#font_0_2" transform="matrix(11.9552,0,0,-11.9552,180.08548,192.29901)"/>
<symbol id="font_1_a">
<path d="M .621 .18599999 C .635 .18599999 .653 .18599999 .653 .204 C .653 .22300002 .63600006 .22300002 .621 .22300002 L .032 .22300002 C .018000003 .22300002 0 .22300002 0 .20500002 C 0 .18599999 .017 .18599999 .032 .18599999 L .621 .18599999 M .621 0 C .635 0 .653 0 .653 .017999992 C .653 .037 .63600006 .037 .621 .037 L .032 .037 C .018000003 .037 0 .037 0 .018999994 C 0 0 .017 0 .032 0 L .621 0 Z "/>
</symbol>
<use xlink:href="#font_1_a" transform="matrix(11.9552,0,0,-11.9552,192.42058,190.6492)"/>
<symbol id="font_2_1">
<path d="M .083000008 0 C .10500002 0 .111 0 .111 .014000058 C .113000009 .71500006 .194 1.297 .544 1.7860001 C .55100008 1.7950001 .55100008 1.797 .55100008 1.7990002 C .55100008 1.8090001 .544 1.8090001 .52800008 1.8090001 C .512 1.8090001 .51000007 1.8090001 .508 1.8070002 C .504 1.8040001 .37700004 1.6580001 .27600003 1.457 C .14400003 1.1930001 .06100002 .89000007 .024000019 .526 C .020999998 .495 0 .28700007 0 .05000007 L 0 .011000037 C .0010000169 0 .0069999995 0 .027999998 0 L .083000008 0 Z "/>
</symbol>
<symbol id="font_2_5">
<path d="M .111 .593 C .111 .619 .110000018 .62 .083000008 .62 L .027999998 .62 C .0010000169 .62 0 .619 0 .593 L 0 .02700001 C 0 .0009999871 .0010000169 0 .027999998 0 L .083000008 0 C .110000018 0 .111 .0009999871 .111 .02700001 L .111 .593 Z "/>
</symbol>
<symbol id="font_2_3">
<path d="M .027999998 1.809 C .0069999995 1.809 .0010000169 1.809 0 1.7980001 L 0 1.7590001 C 0 1.148 .109 .79 .14000002 .689 C .208 .467 .319 .23300004 .486 .02699995 C .50100007 .008999944 .50500008 .0039999487 .509 .0019999743 C .51100006 .0009999275 .512 0 .52800008 0 C .544 0 .55100008 0 .55100008 .00999999 C .55100008 .011999965 .55100008 .013999939 .545 .023000002 C .21200001 .485 .11200002 1.041 .111 1.7950001 C .111 1.809 .10500002 1.809 .083000008 1.809 L .027999998 1.809 Z "/>
</symbol>
<use xlink:href="#font_2_1" transform="matrix(11.9552,0,0,-11.9552,207.67995,160.7367)"/>
<use xlink:href="#font_2_5" transform="matrix(11.9552,0,0,-11.9552,207.67995,167.91066)"/>
<use xlink:href="#font_2_5" transform="matrix(11.9552,0,0,-11.9552,207.67995,175.08364)"/>
<use xlink:href="#font_2_5" transform="matrix(11.9552,0,0,-11.9552,207.67995,182.2566)"/>
<use xlink:href="#font_2_5" transform="matrix(11.9552,0,0,-11.9552,207.67995,189.42958)"/>
<use xlink:href="#font_2_5" transform="matrix(11.9552,0,0,-11.9552,207.67995,196.60256)"/>
<use xlink:href="#font_2_5" transform="matrix(11.9552,0,0,-11.9552,207.67995,203.77553)"/>
<use xlink:href="#font_2_5" transform="matrix(11.9552,0,0,-11.9552,207.67995,210.94954)"/>
<use xlink:href="#font_2_5" transform="matrix(11.9552,0,0,-11.9552,207.67995,218.12252)"/>
<use xlink:href="#font_2_3" transform="matrix(11.9552,0,0,-11.9552,207.67995,239.51004)"/>
<symbol id="font_1_1">
<path d="M .407 .34100003 C .407 .42400003 .402 .50500008 .366 .58100005 C .32500003 .66400006 .253 .68600007 .204 .68600007 C .146 .68600007 .075 .65700009 .038000004 .57400009 C .010000002 .51100006 0 .44900004 0 .34100003 C 0 .244 .0069999995 .171 .043000007 .10000001 C .082 .024000003 .151 0 .20300001 0 C .29000003 0 .34 .052 .36900003 .11 C .405 .185 .407 .28300003 .407 .34100003 M .20300001 .020000002 C .171 .020000002 .106 .038000004 .087000008 .147 C .076000008 .207 .076000008 .28300003 .076000008 .35300002 C .076000008 .43500004 .076000008 .50900009 .092 .5680001 C .109000008 .63500007 .16 .66600009 .20300001 .66600009 C .241 .66600009 .299 .64300009 .31800003 .55700007 C .331 .50000008 .331 .421 .331 .35300002 C .331 .286 .331 .21000001 .32000003 .149 C .301 .039000006 .238 .020000002 .20300001 .020000002 Z "/>
</symbol>
<use xlink:href="#font_1_1" transform="matrix(11.9552,0,0,-11.9552,215.15116,149.11287)"/>
<symbol id="font_0_1">
<path d="M .09700001 .048 C .09700001 .07700001 .07300001 .097 .049000004 .097 C .020000004 .097 0 .07300001 0 .049000004 C 0 .020000002 .024000004 0 .048 0 C .077 0 .09700001 .024 .09700001 .048 Z "/>
</symbol>
<use xlink:href="#font_0_1" transform="matrix(11.9552,0,0,-11.9552,221.5541,148.86182)"/>
<symbol id="font_1_6">
<path d="M .082 .36900003 C .082 .62200006 .20500002 .66200008 .259 .66200008 C .29500003 .66200008 .331 .6510001 .35000003 .62100008 C .338 .62100008 .3 .62100008 .3 .58000007 C .3 .558 .315 .53900006 .34100003 .53900006 C .366 .53900006 .38300003 .5540001 .38300003 .58300009 C .38300003 .63500007 .345 .68600007 .25800003 .68600007 C .132 .68600007 0 .55700007 0 .337 C 0 .062000004 .12000001 0 .20500002 0 C .314 0 .407 .095 .407 .22500001 C .407 .358 .314 .44700004 .21400002 .44700004 C .125 .44700004 .092 .37 .082 .342 L .082 .36900003 M .20500002 .027000003 C .14200002 .027000003 .11200001 .083000008 .10300001 .104 C .094000007 .13000001 .084 .179 .084 .24900002 C .084 .328 .12000001 .42700003 .21000001 .42700003 C .26500003 .42700003 .294 .39000003 .30900003 .356 C .32500003 .319 .32500003 .26900003 .32500003 .22600001 C .32500003 .17500001 .32500003 .13000001 .306 .09200001 C .28100003 .044000005 .245 .027000003 .20500002 .027000003 Z "/>
</symbol>
<symbol id="font_1_9">
<path d="M .32500003 .312 C .32500003 .076000008 .22 .027000003 .16 .027000003 C .136 .027000003 .083000008 .030000002 .058000007 .065000008 L .064 .065000008 C .071 .06300001 .107 .069000009 .107 .106000009 C .107 .128 .092 .147 .06600001 .147 C .04 .147 .024000004 .13000001 .024000004 .104 C .024000004 .042000005 .074 0 .16100002 0 C .286 0 .407 .133 .407 .35000003 C .407 .6190001 .29500003 .68600007 .20700002 .68600007 C .09700001 .68600007 0 .59400007 0 .462 C 0 .33 .093 .24000001 .19300002 .24000001 C .26700003 .24000001 .305 .294 .32500003 .345 L .32500003 .312 M .197 .26000003 C .134 .26000003 .107 .31100003 .09800001 .33 C .082 .368 .082 .416 .082 .46100004 C .082 .517 .082 .56500008 .108 .60600009 C .12600002 .6330001 .153 .66200008 .20700002 .66200008 C .264 .66200008 .293 .61200007 .303 .58900007 C .323 .5400001 .323 .455 .323 .44000004 C .323 .356 .285 .26000003 .197 .26000003 Z "/>
</symbol>
<use xlink:href="#font_1_6" transform="matrix(11.9552,0,0,-11.9552,224.25615,149.11287)"/>
<use xlink:href="#font_1_9" transform="matrix(11.9552,0,0,-11.9552,230.1142,149.11287)"/>
<use xlink:href="#font_1_1" transform="matrix(11.9552,0,0,-11.9552,245.93093,149.11287)"/>
<use xlink:href="#font_0_1" transform="matrix(11.9552,0,0,-11.9552,252.3281,148.86182)"/>
<symbol id="font_1_3">
<path d="M .39100004 .16800002 L .36900003 .16800002 C .36600004 .15100001 .358 .096 .34800003 .080000009 C .34100003 .071 .284 .071 .254 .071 L .069000009 .071 C .09600001 .094000007 .157 .158 .183 .18200001 C .335 .32200004 .39100004 .374 .39100004 .47300003 C .39100004 .588 .3 .665 .18400002 .665 C .068 .665 0 .56600007 0 .48000003 C 0 .42900003 .044 .42900003 .047 .42900003 C .068 .42900003 .094000007 .44400005 .094000007 .476 C .094000007 .504 .075 .523 .047 .523 C .038000004 .523 .036 .523 .033 .522 C .052 .59000006 .106 .63600006 .171 .63600006 C .256 .63600006 .30800004 .565 .30800004 .47300003 C .30800004 .388 .25900004 .314 .20200002 .25 L 0 .024 L 0 0 L .36500005 0 L .39100004 .16800002 Z "/>
</symbol>
<symbol id="font_1_5">
<path d="M .33400003 .651 C .33400003 .67 .33400003 .675 .32 .675 C .312 .675 .30900003 .675 .301 .66300007 L 0 .19600001 L 0 .16700001 L .263 .16700001 L .263 .076000008 C .263 .039 .261 .029000001 .18800001 .029000001 L .16800002 .029000001 L .16800002 0 C .19100002 .002 .27 .002 .298 .002 C .326 .002 .40600003 .002 .42900003 0 L .42900003 .029000001 L .409 .029000001 C .337 .029000001 .33400003 .039 .33400003 .076000008 L .33400003 .16700001 L .435 .16700001 L .435 .19600001 L .33400003 .19600001 L .33400003 .651 M .268 .573 L .268 .19600001 L .025 .19600001 L .268 .573 Z "/>
</symbol>
<use xlink:href="#font_1_3" transform="matrix(11.9552,0,0,-11.9552,255.1248,148.86182)"/>
<use xlink:href="#font_1_5" transform="matrix(11.9552,0,0,-11.9552,260.71986,148.86182)"/>
<use xlink:href="#font_1_1" transform="matrix(11.9552,0,0,-11.9552,276.70399,149.11287)"/>
<use xlink:href="#font_0_1" transform="matrix(11.9552,0,0,-11.9552,283.1011,148.86182)"/>
<use xlink:href="#font_1_1" transform="matrix(11.9552,0,0,-11.9552,285.8032,149.11287)"/>
<use xlink:href="#font_1_6" transform="matrix(11.9552,0,0,-11.9552,291.66127,149.11287)"/>
<use xlink:href="#font_1_1" transform="matrix(11.9552,0,0,-11.9552,307.478,149.11287)"/>
<use xlink:href="#font_0_1" transform="matrix(11.9552,0,0,-11.9552,313.8741,148.86182)"/>
<symbol id="font_1_2">
<path d="M .19700001 .64100006 C .19700001 .66400006 .19700001 .665 .177 .665 C .15300001 .638 .103 .601 0 .601 L 0 .572 C .023000002 .572 .073 .572 .128 .59800007 L .128 .07700001 C .128 .041 .125 .029000001 .037 .029000001 L .0059999974 .029000001 L .0059999974 0 C .033 .002 .13000001 .002 .163 .002 C .196 .002 .292 .002 .319 0 L .319 .029000001 L .288 .029000001 C .2 .029000001 .19700001 .041 .19700001 .07700001 L .19700001 .64100006 Z "/>
</symbol>
<use xlink:href="#font_1_1" transform="matrix(11.9552,0,0,-11.9552,316.5762,149.11287)"/>
<use xlink:href="#font_1_2" transform="matrix(11.9552,0,0,-11.9552,323.032,148.86182)"/>
<use xlink:href="#font_1_1" transform="matrix(11.9552,0,0,-11.9552,345.73497,149.11287)"/>
<use xlink:href="#font_1_1" transform="matrix(11.9552,0,0,-11.9552,376.50767,149.11287)"/>
<use xlink:href="#font_1_1" transform="matrix(11.9552,0,0,-11.9552,407.29234,149.11287)"/>
<use xlink:href="#font_1_1" transform="matrix(11.9552,0,0,-11.9552,215.15119,163.55886)"/>
<use xlink:href="#font_0_1" transform="matrix(11.9552,0,0,-11.9552,221.55413,163.3078)"/>
<symbol id="font_1_4">
<path d="M .143 .38000003 C .12600002 .379 .122 .37800003 .122 .36900003 C .122 .35900004 .127 .35900004 .14500001 .35900004 L .19100002 .35900004 C .276 .35900004 .314 .289 .314 .193 C .314 .062000004 .24599999 .027000003 .197 .027000003 C .14900002 .027000003 .067 .050000006 .038000004 .11600001 C .07000001 .111 .099 .12900001 .099 .165 C .099 .194 .078 .214 .050000006 .214 C .026 .214 0 .2 0 .162 C 0 .073 .08900001 0 .20000002 0 C .319 0 .407 .091000009 .407 .192 C .407 .284 .333 .356 .23700002 .37300004 C .324 .398 .38000003 .47100003 .38000003 .549 C .38000003 .6280001 .298 .68600007 .201 .68600007 C .101 .68600007 .027000003 .62500008 .027000003 .55200007 C .027000003 .512 .058000007 .504 .07300001 .504 C .094000007 .504 .11800001 .51900008 .11800001 .549 C .11800001 .58100005 .094000007 .595 .072000008 .595 C .06600001 .595 .064 .595 .061000006 .59400007 C .099 .66200008 .19300002 .66200008 .19800002 .66200008 C .231 .66200008 .296 .6470001 .296 .549 C .296 .53000006 .293 .474 .264 .43100003 C .234 .38700003 .20000002 .384 .17300001 .38300003 L .143 .38000003 Z "/>
</symbol>
<use xlink:href="#font_1_4" transform="matrix(11.9552,0,0,-11.9552,224.25618,163.55886)"/>
<use xlink:href="#font_1_2" transform="matrix(11.9552,0,0,-11.9552,230.71199,163.3078)"/>
<use xlink:href="#font_1_1" transform="matrix(11.9552,0,0,-11.9552,245.93096,163.55886)"/>
<use xlink:href="#font_0_1" transform="matrix(11.9552,0,0,-11.9552,252.32813,163.3078)"/>
<symbol id="font_1_8">
<path d="M .257 .38200004 C .307 .409 .38000003 .455 .38000003 .53900006 C .38000003 .62600007 .296 .68600007 .204 .68600007 C .10500001 .68600007 .027000003 .61300006 .027000003 .5220001 C .027000003 .488 .037 .45400004 .065000008 .42000003 C .076000008 .407 .07700001 .40600003 .14700002 .35700003 C .050000006 .312 0 .245 0 .172 C 0 .066 .101 0 .20300001 0 C .314 0 .407 .082 .407 .187 C .407 .289 .335 .33400003 .257 .38200004 M .121 .47200004 C .108 .481 .068 .507 .068 .55600008 C .068 .62100008 .136 .66200008 .20300001 .66200008 C .275 .66200008 .33900003 .6100001 .33900003 .53800007 C .33900003 .47700004 .29500003 .428 .23700002 .39600004 L .121 .47200004 M .16800002 .34300003 L .289 .26400004 C .315 .24700001 .361 .216 .361 .155 C .361 .079 .284 .027000003 .204 .027000003 C .11900001 .027000003 .046000005 .089 .046000005 .172 C .046000005 .25000004 .10300001 .31300003 .16800002 .34300003 Z "/>
</symbol>
<use xlink:href="#font_1_4" transform="matrix(11.9552,0,0,-11.9552,255.02919,163.55886)"/>
<use xlink:href="#font_1_8" transform="matrix(11.9552,0,0,-11.9552,260.88728,163.55886)"/>
<use xlink:href="#font_1_1" transform="matrix(11.9552,0,0,-11.9552,276.704,163.55886)"/>
<use xlink:href="#font_0_1" transform="matrix(11.9552,0,0,-11.9552,283.10115,163.3078)"/>
<use xlink:href="#font_1_3" transform="matrix(11.9552,0,0,-11.9552,285.89888,163.3078)"/>
<use xlink:href="#font_1_5" transform="matrix(11.9552,0,0,-11.9552,291.4939,163.3078)"/>
<use xlink:href="#font_1_1" transform="matrix(11.9552,0,0,-11.9552,307.47804,163.55886)"/>
<use xlink:href="#font_0_1" transform="matrix(11.9552,0,0,-11.9552,313.87416,163.3078)"/>
<use xlink:href="#font_1_1" transform="matrix(11.9552,0,0,-11.9552,316.57624,163.55886)"/>
<use xlink:href="#font_1_6" transform="matrix(11.9552,0,0,-11.9552,322.4343,163.55886)"/>
<use xlink:href="#font_1_1" transform="matrix(11.9552,0,0,-11.9552,338.25105,163.55886)"/>
<use xlink:href="#font_0_1" transform="matrix(11.9552,0,0,-11.9552,344.64817,163.3078)"/>
<use xlink:href="#font_1_1" transform="matrix(11.9552,0,0,-11.9552,347.34925,163.55886)"/>
<use xlink:href="#font_1_2" transform="matrix(11.9552,0,0,-11.9552,353.80506,163.3078)"/>
<use xlink:href="#font_1_1" transform="matrix(11.9552,0,0,-11.9552,376.508,163.55886)"/>
<use xlink:href="#font_1_1" transform="matrix(11.9552,0,0,-11.9552,407.2807,163.55886)"/>
<use xlink:href="#font_1_1" transform="matrix(11.9552,0,0,-11.9552,215.15123,178.00484)"/>
<use xlink:href="#font_0_1" transform="matrix(11.9552,0,0,-11.9552,221.55417,177.75379)"/>
<symbol id="font_1_7">
<path d="M .42100004 .6420001 L .42100004 .6650001 L .18 .6650001 C .059000005 .6650001 .057000009 .67800006 .053000008 .6970001 L .031 .6970001 L 0 .497 L .022000004 .497 C .025000003 .51500007 .034000007 .5770001 .047000003 .58800008 C .055000005 .59400007 .13000001 .59400007 .14400001 .59400007 L .35600005 .59400007 L .25000004 .44200004 C .223 .40300004 .12200001 .23900001 .12200001 .051000004 C .12200001 .040000004 .12200001 0 .163 0 C .205 0 .205 .039000006 .205 .052 L .205 .102 C .205 .25100003 .22900002 .367 .27600003 .43400003 L .42100004 .6420001 Z "/>
</symbol>
<use xlink:href="#font_1_1" transform="matrix(11.9552,0,0,-11.9552,224.25623,178.00484)"/>
<use xlink:href="#font_1_7" transform="matrix(11.9552,0,0,-11.9552,230.2697,178.00484)"/>
<use xlink:href="#font_1_1" transform="matrix(11.9552,0,0,-11.9552,245.931,178.00484)"/>
<use xlink:href="#font_0_1" transform="matrix(11.9552,0,0,-11.9552,252.32817,177.75379)"/>
<use xlink:href="#font_1_3" transform="matrix(11.9552,0,0,-11.9552,255.12488,177.75379)"/>
<use xlink:href="#font_1_5" transform="matrix(11.9552,0,0,-11.9552,260.7199,177.75379)"/>
<use xlink:href="#font_1_1" transform="matrix(11.9552,0,0,-11.9552,276.70405,178.00484)"/>
<use xlink:href="#font_0_1" transform="matrix(11.9552,0,0,-11.9552,283.10118,177.75379)"/>
<use xlink:href="#font_1_4" transform="matrix(11.9552,0,0,-11.9552,285.80326,178.00484)"/>
<use xlink:href="#font_1_8" transform="matrix(11.9552,0,0,-11.9552,291.66133,178.00484)"/>
<use xlink:href="#font_1_1" transform="matrix(11.9552,0,0,-11.9552,307.47807,178.00484)"/>
<use xlink:href="#font_0_1" transform="matrix(11.9552,0,0,-11.9552,313.87419,177.75379)"/>
<use xlink:href="#font_1_3" transform="matrix(11.9552,0,0,-11.9552,316.6719,177.75379)"/>
<use xlink:href="#font_1_5" transform="matrix(11.9552,0,0,-11.9552,322.26695,177.75379)"/>
<use xlink:href="#font_1_1" transform="matrix(11.9552,0,0,-11.9552,338.25108,178.00484)"/>
<use xlink:href="#font_0_1" transform="matrix(11.9552,0,0,-11.9552,344.6482,177.75379)"/>
<use xlink:href="#font_1_1" transform="matrix(11.9552,0,0,-11.9552,347.34928,178.00484)"/>
<use xlink:href="#font_1_6" transform="matrix(11.9552,0,0,-11.9552,353.20735,178.00484)"/>
<use xlink:href="#font_1_1" transform="matrix(11.9552,0,0,-11.9552,369.02409,178.00484)"/>
<use xlink:href="#font_0_1" transform="matrix(11.9552,0,0,-11.9552,375.4212,177.75379)"/>
<use xlink:href="#font_1_1" transform="matrix(11.9552,0,0,-11.9552,378.12229,178.00484)"/>
<use xlink:href="#font_1_2" transform="matrix(11.9552,0,0,-11.9552,384.5781,177.75379)"/>
<use xlink:href="#font_1_1" transform="matrix(11.9552,0,0,-11.9552,407.28105,178.00484)"/>
<use xlink:href="#font_1_1" transform="matrix(11.9552,0,0,-11.9552,215.15128,192.44985)"/>
<use xlink:href="#font_0_1" transform="matrix(11.9552,0,0,-11.9552,221.55422,192.19879)"/>
<use xlink:href="#font_1_1" transform="matrix(11.9552,0,0,-11.9552,224.25627,192.44985)"/>
<use xlink:href="#font_1_2" transform="matrix(11.9552,0,0,-11.9552,230.71208,192.19879)"/>
<use xlink:href="#font_1_1" transform="matrix(11.9552,0,0,-11.9552,245.93105,192.44985)"/>
<use xlink:href="#font_0_1" transform="matrix(11.9552,0,0,-11.9552,252.32822,192.19879)"/>
<use xlink:href="#font_1_1" transform="matrix(11.9552,0,0,-11.9552,255.02928,192.44985)"/>
<use xlink:href="#font_1_6" transform="matrix(11.9552,0,0,-11.9552,260.88737,192.44985)"/>
<use xlink:href="#font_1_1" transform="matrix(11.9552,0,0,-11.9552,276.7041,192.44985)"/>
<use xlink:href="#font_0_1" transform="matrix(11.9552,0,0,-11.9552,283.10124,192.19879)"/>
<use xlink:href="#font_1_3" transform="matrix(11.9552,0,0,-11.9552,285.89897,192.19879)"/>
<use xlink:href="#font_1_5" transform="matrix(11.9552,0,0,-11.9552,291.494,192.19879)"/>
<use xlink:href="#font_1_1" transform="matrix(11.9552,0,0,-11.9552,307.47813,192.44985)"/>
<use xlink:href="#font_0_1" transform="matrix(11.9552,0,0,-11.9552,313.87425,192.19879)"/>
<use xlink:href="#font_1_4" transform="matrix(11.9552,0,0,-11.9552,316.57633,192.44985)"/>
<use xlink:href="#font_1_8" transform="matrix(11.9552,0,0,-11.9552,322.4344,192.44985)"/>
<use xlink:href="#font_1_1" transform="matrix(11.9552,0,0,-11.9552,338.25114,192.44985)"/>
<use xlink:href="#font_0_1" transform="matrix(11.9552,0,0,-11.9552,344.64826,192.19879)"/>
<use xlink:href="#font_1_3" transform="matrix(11.9552,0,0,-11.9552,347.44499,192.19879)"/>
<use xlink:href="#font_1_5" transform="matrix(11.9552,0,0,-11.9552,353.04,192.19879)"/>
<use xlink:href="#font_1_1" transform="matrix(11.9552,0,0,-11.9552,369.02415,192.44985)"/>
<use xlink:href="#font_0_1" transform="matrix(11.9552,0,0,-11.9552,375.42127,192.19879)"/>
<use xlink:href="#font_1_1" transform="matrix(11.9552,0,0,-11.9552,378.12236,192.44985)"/>
<use xlink:href="#font_1_6" transform="matrix(11.9552,0,0,-11.9552,383.9804,192.44985)"/>
<use xlink:href="#font_1_1" transform="matrix(11.9552,0,0,-11.9552,399.79716,192.44985)"/>
<use xlink:href="#font_0_1" transform="matrix(11.9552,0,0,-11.9552,406.19429,192.19879)"/>
<use xlink:href="#font_1_1" transform="matrix(11.9552,0,0,-11.9552,408.89637,192.44985)"/>
<use xlink:href="#font_1_2" transform="matrix(11.9552,0,0,-11.9552,415.35218,192.19879)"/>
<use xlink:href="#font_1_1" transform="matrix(11.9552,0,0,-11.9552,222.63034,206.89583)"/>
<use xlink:href="#font_1_1" transform="matrix(11.9552,0,0,-11.9552,245.93103,206.89583)"/>
<use xlink:href="#font_0_1" transform="matrix(11.9552,0,0,-11.9552,252.32828,206.64478)"/>
<use xlink:href="#font_1_1" transform="matrix(11.9552,0,0,-11.9552,255.02935,206.89583)"/>
<use xlink:href="#font_1_2" transform="matrix(11.9552,0,0,-11.9552,261.48518,206.64478)"/>
<use xlink:href="#font_1_1" transform="matrix(11.9552,0,0,-11.9552,276.70417,206.89583)"/>
<use xlink:href="#font_0_1" transform="matrix(11.9552,0,0,-11.9552,283.1013,206.64478)"/>
<use xlink:href="#font_1_1" transform="matrix(11.9552,0,0,-11.9552,285.80339,206.89583)"/>
<use xlink:href="#font_1_6" transform="matrix(11.9552,0,0,-11.9552,291.66145,206.89583)"/>
<use xlink:href="#font_1_1" transform="matrix(11.9552,0,0,-11.9552,307.47819,206.89583)"/>
<use xlink:href="#font_0_1" transform="matrix(11.9552,0,0,-11.9552,313.8743,206.64478)"/>
<use xlink:href="#font_1_3" transform="matrix(11.9552,0,0,-11.9552,316.67204,206.64478)"/>
<use xlink:href="#font_1_5" transform="matrix(11.9552,0,0,-11.9552,322.26707,206.64478)"/>
<use xlink:href="#font_1_1" transform="matrix(11.9552,0,0,-11.9552,338.2512,206.89583)"/>
<use xlink:href="#font_0_1" transform="matrix(11.9552,0,0,-11.9552,344.64833,206.64478)"/>
<use xlink:href="#font_1_4" transform="matrix(11.9552,0,0,-11.9552,347.3494,206.89583)"/>
<use xlink:href="#font_1_8" transform="matrix(11.9552,0,0,-11.9552,353.20747,206.89583)"/>
<use xlink:href="#font_1_1" transform="matrix(11.9552,0,0,-11.9552,369.0242,206.89583)"/>
<use xlink:href="#font_0_1" transform="matrix(11.9552,0,0,-11.9552,375.42134,206.64478)"/>
<use xlink:href="#font_1_3" transform="matrix(11.9552,0,0,-11.9552,378.21806,206.64478)"/>
<use xlink:href="#font_1_5" transform="matrix(11.9552,0,0,-11.9552,383.81309,206.64478)"/>
<use xlink:href="#font_1_1" transform="matrix(11.9552,0,0,-11.9552,399.7972,206.89583)"/>
<use xlink:href="#font_0_1" transform="matrix(11.9552,0,0,-11.9552,406.19435,206.64478)"/>
<use xlink:href="#font_1_1" transform="matrix(11.9552,0,0,-11.9552,408.89643,206.89583)"/>
<use xlink:href="#font_1_7" transform="matrix(11.9552,0,0,-11.9552,414.90989,206.89583)"/>
<use xlink:href="#font_1_1" transform="matrix(11.9552,0,0,-11.9552,222.6304,221.34181)"/>
<use xlink:href="#font_1_1" transform="matrix(11.9552,0,0,-11.9552,253.40309,221.34181)"/>
<use xlink:href="#font_1_1" transform="matrix(11.9552,0,0,-11.9552,276.7038,221.34181)"/>
<use xlink:href="#font_0_1" transform="matrix(11.9552,0,0,-11.9552,283.10136,221.09076)"/>
<use xlink:href="#font_1_1" transform="matrix(11.9552,0,0,-11.9552,285.80345,221.34181)"/>
<use xlink:href="#font_1_2" transform="matrix(11.9552,0,0,-11.9552,292.25926,221.09076)"/>
<use xlink:href="#font_1_1" transform="matrix(11.9552,0,0,-11.9552,307.47825,221.34181)"/>
<use xlink:href="#font_0_1" transform="matrix(11.9552,0,0,-11.9552,313.87437,221.09076)"/>
<use xlink:href="#font_1_1" transform="matrix(11.9552,0,0,-11.9552,316.57646,221.34181)"/>
<use xlink:href="#font_1_6" transform="matrix(11.9552,0,0,-11.9552,322.4345,221.34181)"/>
<use xlink:href="#font_1_1" transform="matrix(11.9552,0,0,-11.9552,338.25126,221.34181)"/>
<use xlink:href="#font_0_1" transform="matrix(11.9552,0,0,-11.9552,344.64839,221.09076)"/>
<use xlink:href="#font_1_3" transform="matrix(11.9552,0,0,-11.9552,347.4451,221.09076)"/>
<use xlink:href="#font_1_5" transform="matrix(11.9552,0,0,-11.9552,353.04014,221.09076)"/>
<use xlink:href="#font_1_1" transform="matrix(11.9552,0,0,-11.9552,369.02427,221.34181)"/>
<use xlink:href="#font_0_1" transform="matrix(11.9552,0,0,-11.9552,375.4214,221.09076)"/>
<use xlink:href="#font_1_4" transform="matrix(11.9552,0,0,-11.9552,378.12248,221.34181)"/>
<use xlink:href="#font_1_8" transform="matrix(11.9552,0,0,-11.9552,383.98054,221.34181)"/>
<use xlink:href="#font_1_1" transform="matrix(11.9552,0,0,-11.9552,399.79728,221.34181)"/>
<use xlink:href="#font_0_1" transform="matrix(11.9552,0,0,-11.9552,406.1944,221.09076)"/>
<use xlink:href="#font_1_4" transform="matrix(11.9552,0,0,-11.9552,408.89649,221.34181)"/>
<use xlink:href="#font_1_2" transform="matrix(11.9552,0,0,-11.9552,415.3523,221.09076)"/>
<use xlink:href="#font_1_1" transform="matrix(11.9552,0,0,-11.9552,222.63047,235.7878)"/>
<use xlink:href="#font_1_1" transform="matrix(11.9552,0,0,-11.9552,253.40316,235.7878)"/>
<use xlink:href="#font_1_1" transform="matrix(11.9552,0,0,-11.9552,284.18785,235.7878)"/>
<use xlink:href="#font_1_1" transform="matrix(11.9552,0,0,-11.9552,307.48854,235.7878)"/>
<use xlink:href="#font_0_1" transform="matrix(11.9552,0,0,-11.9552,313.8744,235.53675)"/>
<use xlink:href="#font_1_1" transform="matrix(11.9552,0,0,-11.9552,316.57649,235.7878)"/>
<use xlink:href="#font_1_2" transform="matrix(11.9552,0,0,-11.9552,323.0323,235.53675)"/>
<use xlink:href="#font_1_1" transform="matrix(11.9552,0,0,-11.9552,338.25129,235.7878)"/>
<use xlink:href="#font_0_1" transform="matrix(11.9552,0,0,-11.9552,344.6484,235.53675)"/>
<use xlink:href="#font_1_1" transform="matrix(11.9552,0,0,-11.9552,347.3495,235.7878)"/>
<use xlink:href="#font_1_6" transform="matrix(11.9552,0,0,-11.9552,353.20756,235.7878)"/>
<use xlink:href="#font_1_1" transform="matrix(11.9552,0,0,-11.9552,369.0243,235.7878)"/>
<use xlink:href="#font_0_1" transform="matrix(11.9552,0,0,-11.9552,375.42143,235.53675)"/>
<use xlink:href="#font_1_3" transform="matrix(11.9552,0,0,-11.9552,378.21815,235.53675)"/>
<use xlink:href="#font_1_5" transform="matrix(11.9552,0,0,-11.9552,383.81318,235.53675)"/>
<use xlink:href="#font_1_1" transform="matrix(11.9552,0,0,-11.9552,399.7973,235.7878)"/>
<use xlink:href="#font_0_1" transform="matrix(11.9552,0,0,-11.9552,406.19444,235.53675)"/>
<use xlink:href="#font_1_6" transform="matrix(11.9552,0,0,-11.9552,408.8965,235.7878)"/>
<use xlink:href="#font_1_9" transform="matrix(11.9552,0,0,-11.9552,414.75459,235.7878)"/>
<symbol id="font_2_2">
<path d="M .551 .05000007 C .551 .661 .44200004 1.019 .411 1.1200001 C .34300003 1.342 .232 1.5760001 .065 1.7820001 C .05 1.8000001 .046 1.8050001 .042 1.8070002 C .040000004 1.8080001 .039 1.8090001 .023000002 1.8090001 C .008000001 1.8090001 0 1.8090001 0 1.7990002 C 0 1.797 0 1.7950001 .013 1.7770001 C .361 1.2910001 .439 .6910001 .44000004 .014000058 C .44000004 0 .446 0 .468 0 L .523 0 C .544 0 .55 0 .551 .011000037 L .551 .05000007 Z "/>
</symbol>
<symbol id="font_2_6">
<path d="M .11099997 .593 C .11099997 .619 .109999988 .62 .082999978 .62 L .027999968 .62 C .0009999871 .62 0 .619 0 .593 L 0 .02700001 C 0 .0009999871 .0009999871 0 .027999968 0 L .082999978 0 C .109999988 0 .11099997 .0009999871 .11099997 .02700001 L .11099997 .593 Z "/>
</symbol>
<symbol id="font_2_4">
<path d="M .551 1.7980001 C .55 1.809 .544 1.809 .523 1.809 L .468 1.809 C .446 1.809 .44000004 1.809 .44000004 1.7950001 C .44000004 1.692 .439 1.454 .41300003 1.205 C .35900004 .68799999 .22600001 .33000005 .0069999995 .023000002 C 0 .013999939 0 .011999965 0 .00999999 C 0 0 .008000001 0 .023000002 0 C .039 0 .041000006 0 .043 .0019999743 C .047000003 .004999995 .17400001 .15100003 .275 .352 C .407 .61600008 .49 .919 .527 1.283 C .53000006 1.314 .551 1.5220001 .551 1.7590001 L .551 1.7980001 Z "/>
</symbol>
<use xlink:href="#font_2_2" transform="matrix(11.9552,0,0,-11.9552,420.4949,160.73645)"/>
<use xlink:href="#font_2_6" transform="matrix(11.9552,0,0,-11.9552,425.7552,167.91042)"/>
<use xlink:href="#font_2_6" transform="matrix(11.9552,0,0,-11.9552,425.7552,175.08339)"/>
<use xlink:href="#font_2_6" transform="matrix(11.9552,0,0,-11.9552,425.7552,182.25637)"/>
<use xlink:href="#font_2_6" transform="matrix(11.9552,0,0,-11.9552,425.7552,189.42934)"/>
<use xlink:href="#font_2_6" transform="matrix(11.9552,0,0,-11.9552,425.7552,196.60231)"/>
<use xlink:href="#font_2_6" transform="matrix(11.9552,0,0,-11.9552,425.7552,203.77529)"/>
<use xlink:href="#font_2_6" transform="matrix(11.9552,0,0,-11.9552,425.7552,210.9493)"/>
<use xlink:href="#font_2_6" transform="matrix(11.9552,0,0,-11.9552,425.7552,218.12227)"/>
<use xlink:href="#font_2_4" transform="matrix(11.9552,0,0,-11.9552,420.4949,239.5098)"/>
</g>
</svg>
