<?xml version="1.0" encoding="UTF-8" standalone="no"?>
<!DOCTYPE svg PUBLIC "-//W3C//DTD SVG 1.1//EN" "http://www.w3.org/Graphics/SVG/1.1/DTD/svg11.dtd">
<svg xmlns="http://www.w3.org/2000/svg" xmlns:xlink="http://www.w3.org/1999/xlink" version="1.1" width="550pt" height="250pt" viewBox="70 100 550 250">
<g enable-background="new">
<path transform="matrix(1,0,0,-1,110.854,138.94904)" stroke-width=".398" stroke-linecap="butt" stroke-miterlimit="10" stroke-linejoin="miter" fill="none" stroke="#000000" d="M 0 0 L 416.692 0 "/>
<path transform="matrix(1,0,0,-1,110.854,153.594)" stroke-width=".398" stroke-linecap="butt" stroke-miterlimit="10" stroke-linejoin="miter" fill="none" stroke="#000000" d="M 0 0 L 0 14.446 "/>
<symbol id="font_0_17">
<path d="M .52900007 .256 L .507 .256 C .49700005 .156 .48400004 .029000001 .30900003 .029000001 L .222 .029000001 C .178 .029000001 .176 .036000004 .176 .069000009 L .176 .606 C .176 .642 .178 .65400007 .26500003 .65400007 L .29500003 .65400007 L .29500003 .683 C .266 .68100008 .178 .68100008 .143 .68100008 C .11300001 .68100008 .024000004 .68100008 0 .683 L 0 .65400007 L .020000004 .65400007 C .092 .65400007 .095000009 .64400008 .095000009 .60700008 L .095000009 .076000008 C .095000009 .039 .092 .029000001 .020000004 .029000001 L 0 .029000001 L 0 0 L .503 0 L .52900007 .256 Z "/>
</symbol>
<symbol id="font_0_26">
<path d="M .342 .277 C .342 .331 .342 .37100003 .298 .41 C .263 .442 .21800003 .456 .17400001 .456 C .09200001 .456 .029000003 .402 .029000003 .337 C .029000003 .308 .048000006 .294 .070999998 .294 C .09500001 .294 .112 .31100003 .112 .335 C .112 .37600003 .076000008 .37600003 .061 .37600003 C .08400001 .418 .13200002 .43600003 .172 .43600003 C .21800003 .43600003 .277 .398 .277 .308 L .277 .268 C .076000008 .26500003 0 .18100001 0 .104 C 0 .025000003 .09200001 0 .15300001 0 C .21900001 0 .26400004 .040000004 .28300003 .088 C .28700004 .041 .31800003 .0050000005 .36100004 .0050000005 C .38200004 .0050000005 .44000004 .019000002 .44000004 .099 L .44000004 .15500002 L .418 .15500002 L .418 .099 C .418 .042000005 .39400003 .034 .38000003 .034 C .342 .034 .342 .087000008 .342 .102000009 L .342 .277 M .277 .15100001 C .277 .053000004 .20400001 .020000002 .16100002 .020000002 C .112 .020000002 .070999998 .056000007 .070999998 .104 C .070999998 .23600002 .24100003 .24800001 .277 .25 L .277 .15100001 Z "/>
</symbol>
<symbol id="font_0_37">
<path d="M .38700003 .53800007 C .414 .605 .46100004 .606 .48000003 .606 L .48000003 .63500007 C .451 .633 .437 .633 .405 .633 C .382 .633 .38000003 .633 .324 .63500007 L .324 .606 C .361 .60400006 .37 .58100005 .37 .563 C .37 .554 .368 .549 .36400003 .53900006 L .262 .287 L .15100001 .559 C .145 .573 .145 .57900008 .145 .58000007 C .145 .606 .18 .606 .2 .606 L .2 .63500007 C .174 .633 .125 .633 .097 .633 C .059000009 .633 .057000005 .633 0 .63500007 L 0 .606 C .058000007 .606 .06600001 .601 .079 .57000008 L .228 .20400001 C .184 .098000008 .184 .09600001 .18 .08800001 C .163 .058 .136 .019999996 .091000009 .019999996 C .060000004 .019999996 .041 .038000004 .041 .038000004 C .041 .038000004 .076000008 .04200001 .076000008 .07700001 C .076000008 .101 .057000005 .11400001 .039000006 .11400001 C .022000002 .11400001 .0010000002 .10400001 .0010000002 .075 C .0010000002 .037 .038000004 0 .091000009 0 C .147 0 .18800001 .04900001 .214 .112 L .38700003 .53800007 Z "/>
</symbol>
<symbol id="font_0_2a">
<path d="M .35300002 .24200002 C .37500004 .24200002 .377 .24200002 .377 .261 C .377 .36200003 .323 .456 .202 .456 C .08800001 .456 0 .35300002 0 .22900002 C 0 .097 .102 0 .21300002 0 C .33200003 0 .377 .108 .377 .12900001 C .377 .135 .372 .13900002 .36600004 .13900002 C .358 .13900002 .356 .134 .354 .12900001 C .328 .045 .261 .022 .21900001 .022 C .17700002 .022 .076000008 .050000006 .076000008 .22300002 L .076000008 .24200002 L .35300002 .24200002 M .07700001 .261 C .085 .418 .17300001 .43600003 .201 .43600003 C .30800004 .43600003 .314 .29500003 .31500004 .261 L .07700001 .261 Z "/>
</symbol>
<symbol id="font_0_32">
<path d="M .13900002 .23300001 C .13900002 .33 .17900002 .42100004 .256 .42100004 C .26400004 .42100004 .266 .42100004 .27 .42000003 C .26200003 .416 .24600002 .41000004 .24600002 .38300003 C .24600002 .354 .26900003 .34300003 .28500004 .34300003 C .305 .34300003 .32500003 .356 .32500003 .38300003 C .32500003 .41300003 .298 .441 .25500003 .441 C .17000002 .441 .14100002 .349 .135 .33 L .134 .33 L .134 .441 L 0 .43 L 0 .40100003 C .068 .40100003 .076000008 .39400003 .076000008 .34500004 L .076000008 .074 C .076000008 .029000001 .065 .029000001 0 .029000001 L 0 0 C .028 .002 .083000008 .002 .113000009 .002 C .14000002 .002 .21100001 .002 .23400003 0 L .23400003 .029000001 L .21400002 .029000001 C .14100002 .029000001 .13900002 .040000004 .13900002 .076000008 L .13900002 .23300001 Z "/>
</symbol>
<symbol id="font_0_33">
<path d="M .29500003 .433 C .29500003 .451 .29500003 .456 .28500004 .456 C .277 .456 .25800003 .43400003 .25100003 .425 C .22000003 .45000003 .18900001 .456 .157 .456 C .036000007 .456 0 .39000003 0 .335 C 0 .324 0 .289 .038000004 .254 C .07000001 .22600001 .10400001 .21900001 .15 .21000001 C .20500002 .19900002 .21800003 .19600001 .24300003 .17600002 C .261 .16100002 .27400003 .13900002 .27400003 .111 C .27400003 .068 .24900002 .020000002 .16100002 .020000002 C .095000009 .020000002 .047000007 .058000003 .025000003 .158 C .021000002 .17600002 .021000002 .17700002 .020000004 .17800002 C .018000003 .18200001 .014000002 .18200001 .011000004 .18200001 C 0 .18200001 0 .17700002 0 .15900001 L 0 .023000002 C 0 .0050000005 0 0 .010000002 0 C .015000001 0 .016000003 .0010000002 .033 .022 C .038000004 .029000003 .038000004 .031000004 .053000004 .047000003 C .091000009 0 .14500001 0 .162 0 C .26700003 0 .31900005 .058000003 .31900005 .13700001 C .31900005 .19100002 .286 .22300002 .277 .23200003 C .24100003 .263 .21400002 .269 .148 .28100003 C .11800001 .287 .045 .301 .045 .361 C .045 .39200003 .06600001 .43800003 .15600002 .43800003 C .26500003 .43800003 .27100004 .345 .27300004 .314 C .27400003 .306 .28100003 .306 .284 .306 C .29500003 .306 .29500003 .31100003 .29500003 .329 L .29500003 .433 Z "/>
</symbol>
<symbol id="font_0_27">
<path d="M .13900002 .704 L 0 .693 L 0 .66400006 C .068 .66400006 .076000008 .657 .076000008 .60800006 L .076000008 .010000001 L .098000008 .010000001 C .10200001 .018000002 .13000001 .068 .134 .075 C .157 .038000004 .20000002 0 .26400004 0 C .379 0 .48000003 .097 .48000003 .22600001 C .48000003 .35300002 .38600005 .451 .275 .451 C .22000002 .451 .17300001 .426 .13900002 .384 L .13900002 .704 M .14100002 .33 C .14100002 .34800003 .14100002 .35 .15200001 .366 C .17600002 .402 .22000002 .43100003 .26900003 .43100003 C .29900003 .43100003 .404 .419 .404 .22700002 C .404 .16000001 .39400003 .118 .37000004 .082 C .35000003 .051000004 .31000004 .020000002 .26000003 .020000002 C .20600002 .020000002 .17100002 .055000005 .15400002 .082 C .14100002 .103 .14100002 .107 .14100002 .124000009 L .14100002 .33 Z "/>
</symbol>
<symbol id="font_0_35">
<path d="M .272 .44 L .272 .411 C .34 .411 .34800003 .404 .34800003 .35500003 L .34800003 .17600002 C .34800003 .091 .303 .020000002 .22800002 .020000002 C .146 .020000002 .141 .067 .141 .120000008 L .141 .451 L 0 .44 L 0 .411 C .076000008 .411 .076000008 .40800003 .076000008 .319 L .076000008 .16900002 C .076000008 .107 .076000008 .071 .106000009 .038000004 C .13 .012000001 .171 0 .222 0 C .23900002 0 .271 0 .305 .029000003 C .33400003 .052000006 .35000003 .09 .35000003 .09 L .35000003 0 L .48900003 .010000001 L .48900003 .039 C .421 .039 .41300003 .046000005 .41300003 .095 L .41300003 .451 L .272 .44 Z "/>
</symbol>
<symbol id="font_0_2e">
<path d="M .41300003 .24300002 C .41300003 .33600004 .41300003 .36400003 .39000003 .39600004 C .361 .43500004 .314 .441 .28 .441 C .183 .441 .145 .358 .13700001 .33800004 L .136 .33800004 L .136 .441 L 0 .43 L 0 .40100003 C .068 .40100003 .076000008 .39400003 .076000008 .34500004 L .076000008 .074 C .076000008 .029000001 .065 .029000001 0 .029000001 L 0 0 C .026 .002 .08 .002 .107999999 .002 C .13700001 .002 .191 .002 .21700001 0 L .21700001 .029000001 C .153 .029000001 .141 .029000001 .141 .074 L .141 .26000003 C .141 .365 .21000001 .42100004 .272 .42100004 C .33400003 .42100004 .34800003 .37 .34800003 .30900003 L .34800003 .074 C .34800003 .029000001 .337 .029000001 .272 .029000001 L .272 0 C .298 .002 .352 .002 .38000003 .002 C .409 .002 .46300004 .002 .48900003 0 L .48900003 .029000001 C .439 .029000001 .414 .029000001 .41300003 .059000005 L .41300003 .24300002 Z "/>
</symbol>
<symbol id="font_0_2f">
<path d="M .42900003 .22400002 C .42900003 .35300002 .33100004 .456 .215 .456 C .095 .456 0 .35 0 .22400002 C 0 .096 .10000001 0 .21400002 0 C .33200003 0 .42900003 .098000008 .42900003 .22400002 M .215 .022 C .178 .022 .133 .038000004 .104 .087000008 C .07700001 .13200002 .076000008 .19100002 .076000008 .23300001 C .076000008 .271 .076000008 .33200003 .10700001 .377 C .135 .42000003 .179 .43600003 .21400002 .43600003 C .25300003 .43600003 .29500003 .418 .32200004 .379 C .35300002 .333 .35300002 .27 .35300002 .23300001 C .35300002 .19800002 .35300002 .136 .32700003 .089 C .29900003 .041 .25300003 .022 .215 .022 Z "/>
</symbol>
<symbol id="font_0_29">
<path d="M .26500003 .693 L .26500003 .66400006 C .33300004 .66400006 .34100003 .657 .34100003 .60800006 L .34100003 .387 C .32000003 .416 .277 .451 .21600002 .451 C .10000001 .451 0 .35300002 0 .22500001 C 0 .098000008 .09500001 0 .20500002 0 C .28100003 0 .32500003 .050000006 .33900003 .069000009 L .33900003 0 L .48000006 .010000001 L .48000006 .039 C .41200004 .039 .404 .046000005 .404 .095 L .404 .704 L .26500003 .693 M .33900003 .127 C .33900003 .109000008 .33900003 .106 .32500003 .084 C .30100004 .049000004 .26000003 .020000002 .21000001 .020000002 C .18400002 .020000002 .076000008 .030000002 .076000008 .22400002 C .076000008 .296 .088 .336 .110000018 .36900003 C .13000001 .4 .17000002 .43100003 .22000003 .43100003 C .282 .43100003 .31700004 .386 .32700003 .37 C .33900003 .35300002 .33900003 .351 .33900003 .333 L .33900003 .127 Z "/>
</symbol>
<use xlink:href="#font_0_17" transform="matrix(11.9552,0,0,-11.9552,269.01417,149.26001)"/>
<use xlink:href="#font_0_26" transform="matrix(11.9552,0,0,-11.9552,276.3666,149.37957)"/>
<use xlink:href="#font_0_37" transform="matrix(11.9552,0,0,-11.9552,281.59104,151.69887)"/>
<use xlink:href="#font_0_2a" transform="matrix(11.9552,0,0,-11.9552,287.59257,149.37957)"/>
<use xlink:href="#font_0_32" transform="matrix(11.9552,0,0,-11.9552,292.76918,149.26001)"/>
<use xlink:href="#font_0_33" transform="matrix(11.9552,0,0,-11.9552,297.38389,149.37957)"/>
<use xlink:href="#font_0_27" transform="matrix(11.9552,0,0,-11.9552,305.8362,149.37957)"/>
<use xlink:href="#font_0_37" transform="matrix(11.9552,0,0,-11.9552,311.8975,151.69887)"/>
<use xlink:href="#font_0_32" transform="matrix(11.9552,0,0,-11.9552,322.0953,149.26001)"/>
<use xlink:href="#font_0_35" transform="matrix(11.9552,0,0,-11.9552,326.69807,149.37957)"/>
<use xlink:href="#font_0_2e" transform="matrix(11.9552,0,0,-11.9552,333.2017,149.26001)"/>
<use xlink:href="#font_0_2f" transform="matrix(11.9552,0,0,-11.9552,343.5788,149.37957)"/>
<use xlink:href="#font_0_32" transform="matrix(11.9552,0,0,-11.9552,349.41297,149.26001)"/>
<use xlink:href="#font_0_29" transform="matrix(11.9552,0,0,-11.9552,354.05158,149.37957)"/>
<use xlink:href="#font_0_2a" transform="matrix(11.9552,0,0,-11.9552,360.49543,149.37957)"/>
<use xlink:href="#font_0_32" transform="matrix(11.9552,0,0,-11.9552,365.67204,149.26001)"/>
<path transform="matrix(1,0,0,-1,527.546,153.594)" stroke-width=".398" stroke-linecap="butt" stroke-miterlimit="10" stroke-linejoin="miter" fill="none" stroke="#000000" d="M 0 0 L 0 14.446 "/>
<path transform="matrix(1,0,0,-1,110.854,153.79303)" stroke-width=".398" stroke-linecap="butt" stroke-miterlimit="10" stroke-linejoin="miter" fill="none" stroke="#000000" d="M 0 0 L 416.692 0 "/>
<path transform="matrix(1,0,0,-1,110.854,171.01203)" stroke-width=".398" stroke-linecap="butt" stroke-miterlimit="10" stroke-linejoin="miter" fill="none" stroke="#000000" d="M 0 0 L 0 17.019 "/>
<path transform="matrix(1,0,0,-1,112.847,171.01203)" stroke-width=".398" stroke-linecap="butt" stroke-miterlimit="10" stroke-linejoin="miter" fill="none" stroke="#000000" d="M 0 0 L 0 17.019 "/>
<symbol id="font_0_19">
<path d="M .185 .669 C .176 .68200007 .17500001 .683 .153 .683 L 0 .683 L 0 .65400007 C .043000007 .65400007 .068 .65400007 .095000009 .647 L .095000009 .105000007 C .095000009 .076000008 .095000009 .029000001 0 .029000001 L 0 0 C .026 .002 .079 .002 .107 .002 C .13500002 .002 .18800003 .002 .21400002 0 L .21400002 .029000001 C .11900001 .029000001 .11900001 .076000008 .11900001 .105000007 L .11900001 .63100007 C .127 .623 .127 .62100008 .136 .609 L .526 .015000001 C .536 .001 .537 0 .544 0 C .55300006 0 .555 .004 .556 .006 L .556 .578 C .556 .60700008 .556 .65400007 .651 .65400007 L .651 .683 C .625 .68100008 .572 .68100008 .544 .68100008 C .51600006 .68100008 .463 .68100008 .437 .683 L .437 .65400007 C .532 .65400007 .532 .60700008 .532 .578 L .532 .141 L .185 .669 Z "/>
</symbol>
<symbol id="font_0_34">
<path d="M .15 .412 L .291 .412 L .291 .441 L .15 .441 L .15 .625 L .128 .625 C .127 .531 .091000009 .435 0 .432 L 0 .412 L .08500001 .412 L .08500001 .134 C .08500001 .023000002 .159 0 .212 0 C .275 0 .308 .062000004 .308 .134 L .308 .19100002 L .286 .19100002 L .286 .136 C .286 .064 .257 .022 .21800001 .022 C .15 .022 .15 .115 .15 .13200002 L .15 .412 Z "/>
</symbol>
<symbol id="font_0_30">
<path d="M .21700001 .029 C .15300001 .029 .14100002 .029 .14100002 .074 L .14100002 .24800001 C .15900001 .223 .20000002 .184 .26400004 .184 C .379 .184 .48000003 .28100003 .48000003 .41000004 C .48000003 .53700008 .38600005 .635 .277 .635 C .18900001 .635 .142 .572 .13900002 .568 L .13900002 .635 L 0 .624 L 0 .595 C .07000001 .595 .076000008 .58800008 .076000008 .544 L .076000008 .074 C .076000008 .029 .065 .029 0 .029 L 0 0 C .026 .002000004 .08 .002000004 .10800001 .002000004 C .13700001 .002000004 .19100002 .002000004 .21700001 0 L .21700001 .029 M .14100002 .513 C .14100002 .53200009 .14100002 .533 .15200001 .549 C .18200001 .594 .231 .61300006 .26900003 .61300006 C .344 .61300006 .404 .522 .404 .41000004 C .404 .291 .33600004 .20400001 .259 .20400001 C .22800002 .20400001 .19900002 .21700001 .17900002 .236 C .15600002 .259 .14100002 .279 .14100002 .307 L .14100002 .513 Z "/>
</symbol>
<symbol id="font_0_18">
<path d="M .186 .66400006 C .179 .683 .17800002 .683 .15500002 .683 L 0 .683 L 0 .65400007 L .02 .65400007 C .09200001 .65400007 .09500001 .64400008 .09500001 .60700008 L .09500001 .10300001 C .09500001 .076000008 .09500001 .029000001 0 .029000001 L 0 0 C .025999997 .002 .078999999 .002 .10700001 .002 C .135 .002 .18800001 .002 .21400002 0 L .21400002 .029000001 C .119 .029000001 .119 .076000008 .119 .10300001 L .119 .64900007 L .120000008 .64900007 L .36100004 .019000002 C .365 .008 .36800004 0 .37800003 0 C .38700003 0 .38900004 .0050000005 .395 .020000002 L .638 .65400007 L .639 .65400007 L .639 .076000008 C .639 .039 .636 .029000001 .564 .029000001 L .54399999 .029000001 L .54399999 0 C .567 .002 .647 .002 .676 .002 C .705 .002 .785 .002 .808 0 L .808 .029000001 L .788 .029000001 C .716 .029000001 .713 .039 .713 .076000008 L .713 .60700008 C .713 .64400008 .716 .65400007 .788 .65400007 L .808 .65400007 L .808 .683 L .653 .683 C .631 .683 .63 .68200007 .622 .66300007 L .404 .094000007 L .186 .66400006 Z "/>
</symbol>
<symbol id="font_0_10">
<path d="M .35600005 .69600006 C .35200004 .708 .35000003 .71400007 .33600004 .71400007 C .32200004 .71400007 .32000003 .711 .31500004 .69500008 L .106000009 .097 C .092 .056 .064 .030000002 0 .029000001 L 0 0 C .061000006 .002 .063 .002 .096 .002 C .124 .002 .172 .002 .19800002 0 L .19800002 .029000001 C .156 .030000002 .131 .051000004 .131 .079 C .131 .085 .131 .087000008 .136 .1 L .18200001 .23300001 L .43400005 .23300001 L .48900006 .076000008 C .49400006 .064 .49400006 .062000004 .49400006 .059000005 C .49400006 .029000001 .44300006 .029000001 .41800005 .029000001 L .41800005 0 C .44100005 .002 .52 .002 .54800006 .002 C .57600006 .002 .648 .002 .671 0 L .671 .029000001 C .606 .029000001 .588 .029000001 .574 .07 L .35600005 .69600006 M .30800004 .595 L .42400003 .26200003 L .192 .26200003 L .30800004 .595 Z "/>
</symbol>
<symbol id="font_0_11">
<path d="M .598 .7020001 C .598 .7200001 .598 .7250001 .588 .7250001 C .582 .7250001 .58100005 .72300007 .575 .71300008 L .526 .63400009 C .48100005 .69000008 .41300003 .7250001 .34100003 .7250001 C .158 .7250001 0 .56700006 0 .363 C 0 .156 .16000001 0 .34100003 0 C .505 0 .598 .143 .598 .25300003 C .598 .26400004 .598 .27 .587 .27 C .577 .27 .57600006 .26500003 .57600006 .25800003 C .56700006 .09900001 .451 .029000003 .35400004 .029000003 C .28400005 .029000003 .092999998 .071 .092999998 .363 C .092999998 .65200009 .28100003 .69600006 .35300002 .69600006 C .45800004 .69600006 .55 .60700008 .57 .45700003 C .572 .44500003 .572 .44200004 .584 .44200004 C .598 .44200004 .598 .44500003 .598 .46500004 L .598 .7020001 Z "/>
</symbol>
<symbol id="font_0_2">
<path d="M .08900001 .21300003 C .089999999 .206 .091 .201 .091 .188 C .091 .174 .091 .092999998 .022 .024000019 C .012999997 .0150000159 .012999997 .013000011 .012999997 .01000002 C .012999997 .004999995 .018 0 .023000002 0 C .031999999 0 .11100001 .074 .11100001 .188 C .11100001 .25000004 .08800001 .29 .048 .29 C .019000002 .29 0 .26800005 0 .24200002 C 0 .215 .019000002 .19299999 .049000004 .19299999 C .076 .19299999 .08900001 .21200004 .08900001 .21300003 Z "/>
</symbol>
<symbol id="font_0_1">
<path d="M .707 .201 C .707 .316 .65000006 .403 .579 .403 C .506 .403 .43500004 .32 .43500004 .20200002 C .43500004 .08 .507 0 .579 0 C .651 0 .707 .09 .707 .201 M .58 .02 C .566 .02 .49300007 .027 .49300007 .201 C .49300007 .377 .565 .38300003 .58 .38300003 C .635 .38300003 .685 .305 .685 .20200002 C .685 .096 .634 .02 .58 .02 M .617 .77000007 C .623 .77900007 .625 .782 .625 .787 C .625 .8 .615 .80600008 .607 .80600008 C .597 .80600008 .594 .80100008 .586 .791 C .522 .70500007 .43700005 .697 .39900003 .697 C .38000003 .697 .29400004 .697 .21300002 .77500006 C .192 .796 .17 .80600008 .14400001 .80600008 C .070999998 .80600008 0 .72300007 0 .605 C 0 .483 .072 .403 .14400001 .403 C .216 .403 .272 .493 .272 .60400006 C .272 .633 .27 .67 .25000004 .72 C .31500004 .68200007 .37100003 .67700007 .40000005 .67700007 C .42700006 .67700007 .48200003 .68200007 .535 .71500006 L .536 .71400007 L .09 .036 C .08400001 .027 .082 .024 .082 .019000002 C .082 .008000001 .091000009 0 .100999999 0 C .11 0 .11500001 .0069999995 .120000008 .013999999 L .617 .77000007 M .14500001 .423 C .131 .423 .058000003 .43 .058000003 .60400006 C .058000003 .78000006 .13000001 .786 .14500001 .786 C .2 .786 .25000004 .708 .25000004 .605 C .25000004 .499 .19900002 .423 .14500001 .423 Z "/>
</symbol>
<symbol id="font_0_2d">
<path d="M .685 .24300002 C .685 .33600004 .685 .36400003 .662 .39600004 C .633 .43500004 .586 .441 .55200007 .441 C .46900005 .441 .42700003 .381 .411 .342 C .397 .41900004 .34300003 .441 .28 .441 C .183 .441 .145 .358 .13700001 .33800004 L .136 .33800004 L .136 .441 L 0 .43 L 0 .40100003 C .068 .40100003 .076000008 .39400003 .076000008 .34500004 L .076000008 .074 C .076000008 .029000001 .065 .029000001 0 .029000001 L 0 0 C .026 .002 .08 .002 .107999999 .002 C .13700001 .002 .191 .002 .21700001 0 L .21700001 .029000001 C .153 .029000001 .141 .029000001 .141 .074 L .141 .26000003 C .141 .365 .21000001 .42100004 .272 .42100004 C .33400003 .42100004 .34800003 .37 .34800003 .30900003 L .34800003 .074 C .34800003 .029000001 .337 .029000001 .272 .029000001 L .272 0 C .298 .002 .352 .002 .38000003 .002 C .409 .002 .46300004 .002 .48900003 0 L .48900003 .029000001 C .425 .029000001 .41300003 .029000001 .41300003 .074 L .41300003 .26000003 C .41300003 .365 .482 .42100004 .544 .42100004 C .606 .42100004 .62 .37 .62 .30900003 L .62 .074 C .62 .029000001 .609 .029000001 .544 .029000001 L .544 0 C .57000008 .002 .624 .002 .652 .002 C .68100008 .002 .735 .002 .76100006 0 L .76100006 .029000001 C .711 .029000001 .68600007 .029000001 .685 .059000005 L .685 .24300002 Z "/>
</symbol>
<use xlink:href="#font_0_19" transform="matrix(11.9552,0,0,-11.9552,158.38916,164.10504)"/>
<use xlink:href="#font_0_2f" transform="matrix(11.9552,0,0,-11.9552,167.03278,164.2246)"/>
<use xlink:href="#font_0_29" transform="matrix(11.9552,0,0,-11.9552,173.27338,164.2246)"/>
<use xlink:href="#font_0_2a" transform="matrix(11.9552,0,0,-11.9552,179.71724,164.2246)"/>
<use xlink:href="#font_0_34" transform="matrix(11.9552,0,0,-11.9552,188.68364,164.2246)"/>
<use xlink:href="#font_0_37" transform="matrix(11.9552,0,0,-11.9552,192.90383,166.5439)"/>
<use xlink:href="#font_0_30" transform="matrix(11.9552,0,0,-11.9552,199.20421,166.42435)"/>
<use xlink:href="#font_0_2a" transform="matrix(11.9552,0,0,-11.9552,206.05454,164.2246)"/>
<use xlink:href="#font_0_18" transform="matrix(11.9552,0,0,-11.9552,262.45918,164.10504)"/>
<use xlink:href="#font_0_10" transform="matrix(11.9552,0,0,-11.9552,273.02757,164.10504)"/>
<use xlink:href="#font_0_11" transform="matrix(11.9552,0,0,-11.9552,281.75486,164.3561)"/>
<use xlink:href="#font_0_11" transform="matrix(11.9552,0,0,-11.9552,290.20719,164.3561)"/>
<use xlink:href="#font_0_2" transform="matrix(11.9552,0,0,-11.9552,299.05406,159.27515)"/>
<use xlink:href="#font_0_33" transform="matrix(11.9552,0,0,-11.9552,301.66029,164.2246)"/>
<use xlink:href="#font_0_1" transform="matrix(11.9552,0,0,-11.9552,334.7403,164.77454)"/>
<use xlink:href="#font_0_19" transform="matrix(11.9552,0,0,-11.9552,431.51765,164.10504)"/>
<use xlink:href="#font_0_26" transform="matrix(11.9552,0,0,-11.9552,440.3286,164.2246)"/>
<use xlink:href="#font_0_2d" transform="matrix(11.9552,0,0,-11.9552,446.0432,164.10504)"/>
<use xlink:href="#font_0_2a" transform="matrix(11.9552,0,0,-11.9552,455.76277,164.2246)"/>
<path transform="matrix(1,0,0,-1,525.554,171.01203)" stroke-width=".398" stroke-linecap="butt" stroke-miterlimit="10" stroke-linejoin="miter" fill="none" stroke="#000000" d="M 0 0 L 0 17.019 "/>
<path transform="matrix(1,0,0,-1,527.546,171.01203)" stroke-width=".398" stroke-linecap="butt" stroke-miterlimit="10" stroke-linejoin="miter" fill="none" stroke="#000000" d="M 0 0 L 0 17.019 "/>
<path transform="matrix(1,0,0,-1,110.854,171.211)" stroke-width=".398" stroke-linecap="butt" stroke-miterlimit="10" stroke-linejoin="miter" fill="none" stroke="#000000" d="M 0 0 L 416.692 0 "/>
<path transform="matrix(1,0,0,-1,110.854,173.20404)" stroke-width=".398" stroke-linecap="butt" stroke-miterlimit="10" stroke-linejoin="miter" fill="none" stroke="#000000" d="M 0 0 L 416.692 0 "/>
<path transform="matrix(1,0,0,-1,110.854,187.849)" stroke-width=".398" stroke-linecap="butt" stroke-miterlimit="10" stroke-linejoin="miter" fill="none" stroke="#000000" d="M 0 0 L 0 14.446 "/>
<path transform="matrix(1,0,0,-1,112.847,187.849)" stroke-width=".398" stroke-linecap="butt" stroke-miterlimit="10" stroke-linejoin="miter" fill="none" stroke="#000000" d="M 0 0 L 0 14.446 "/>
<symbol id="font_0_12">
<path d="M 0 .683 L 0 .65400007 L .02 .65400007 C .092 .65400007 .095000009 .64400008 .095000009 .60700008 L .095000009 .076000008 C .095000009 .039 .092 .029000001 .02 .029000001 L 0 .029000001 L 0 0 L .35000003 0 C .517 0 .651 .15 .651 .335 C .651 .528 .51600006 .683 .35000003 .683 L 0 .683 M .22000003 .029000001 C .176 .029000001 .174 .036000004 .174 .069000009 L .174 .614 C .174 .647 .176 .65400007 .22000003 .65400007 L .32500003 .65400007 C .40800003 .65400007 .47400005 .614 .51500007 .54800006 C .56000009 .47700004 .56000009 .37600003 .56000009 .33600004 C .56000009 .28 .559 .186 .50200006 .112 C .46900005 .07 .40900005 .029000001 .32500003 .029000001 L .22000003 .029000001 Z "/>
</symbol>
<symbol id="font_0_13">
<path d="M .597 .256 L .57500007 .256 C .551 .1 .527 .029000001 .358 .029000001 L .222 .029000001 C .178 .029000001 .176 .036000004 .176 .069000009 L .176 .33900003 L .26700003 .33900003 C .363 .33900003 .374 .30800004 .374 .22200002 L .396 .22200002 L .396 .485 L .374 .485 C .374 .39900003 .363 .36800004 .26700003 .36800004 L .176 .36800004 L .176 .61200007 C .176 .64500007 .178 .652 .222 .652 L .35500003 .652 C .50200006 .652 .533 .60200008 .54800006 .45800004 L .57 .45800004 L .544 .68100008 L 0 .68100008 L 0 .652 L .020000004 .652 C .092 .652 .095000009 .642 .095000009 .605 L .095000009 .076000008 C .095000009 .039 .092 .029000001 .020000004 .029000001 L 0 .029000001 L 0 0 L .55700007 0 L .597 .256 Z "/>
</symbol>
<symbol id="font_0_1b">
<path d="M .176 .31800003 L .34500004 .31800003 C .462 .31800003 .569 .397 .569 .49800004 C .569 .595 .472 .683 .337 .683 L 0 .683 L 0 .65400007 L .02 .65400007 C .092 .65400007 .095000009 .64400008 .095000009 .60700008 L .095000009 .076000008 C .095000009 .039 .092 .029000001 .02 .029000001 L 0 .029000001 L 0 0 C .023999997 .002 .106 .002 .13499999 .002 C .16500002 .002 .24700001 .002 .27100004 0 L .27100004 .029000001 L .25100003 .029000001 C .17900002 .029000001 .176 .039 .176 .076000008 L .176 .31800003 M .174 .342 L .174 .614 C .174 .647 .176 .65400007 .22000003 .65400007 L .314 .65400007 C .476 .65400007 .476 .541 .476 .49800004 C .476 .45600004 .476 .342 .31300003 .342 L .174 .342 Z "/>
</symbol>
<symbol id="font_0_1e">
<path d="M .61800006 .67800006 L .018000003 .67800006 L 0 .455 L .022000004 .455 C .036000004 .61300006 .045000007 .64900007 .20300001 .64900007 C .22100002 .64900007 .24900002 .64900007 .25700004 .647 C .277 .64400008 .27800004 .632 .27800004 .609 L .27800004 .07700001 C .27800004 .043 .27800004 .029000001 .18 .029000001 L .14400001 .029000001 L .14400001 0 C .17600002 .002 .279 .002 .31800003 .002 C .35700003 .002 .46100004 .002 .493 0 L .493 .029000001 L .45700003 .029000001 C .35900004 .029000001 .35900004 .043 .35900004 .07700001 L .35900004 .609 C .35900004 .634 .36100004 .643 .37700004 .647 C .38500003 .64900007 .41400004 .64900007 .43300004 .64900007 C .591 .64900007 .6 .61300006 .614 .455 L .636 .455 L .61800006 .67800006 Z "/>
</symbol>
<symbol id="font_0_15">
<path d="M .556 .60700008 C .556 .64400008 .559 .65400007 .63100007 .65400007 L .651 .65400007 L .651 .683 C .62700006 .68100008 .545 .68100008 .51600006 .68100008 C .486 .68100008 .404 .68100008 .38000003 .683 L .38000003 .65400007 L .4 .65400007 C .472 .65400007 .47500003 .64400008 .47500003 .60700008 L .47500003 .37 L .176 .37 L .176 .60700008 C .176 .64400008 .17900002 .65400007 .25100003 .65400007 L .271 .65400007 L .271 .683 C .24700001 .68100008 .16500002 .68100008 .136 .68100008 C .106 .68100008 .024000004 .68100008 0 .683 L 0 .65400007 L .020000004 .65400007 C .092 .65400007 .095000009 .64400008 .095000009 .60700008 L .095000009 .076000008 C .095000009 .039 .092 .029000001 .020000004 .029000001 L 0 .029000001 L 0 0 C .024000004 .002 .106 .002 .13500002 .002 C .16500002 .002 .24700001 .002 .271 0 L .271 .029000001 L .25100003 .029000001 C .17900002 .029000001 .176 .039 .176 .076000008 L .176 .34100003 L .47500003 .34100003 L .47500003 .076000008 C .47500003 .039 .472 .029000001 .4 .029000001 L .38000003 .029000001 L .38000003 0 C .404 .002 .486 .002 .51500007 .002 C .545 .002 .62700006 .002 .651 0 L .651 .029000001 L .63100007 .029000001 C .559 .029000001 .556 .039 .556 .076000008 L .556 .60700008 Z "/>
</symbol>
<symbol id="font_0_21">
<path d="M .87600007 .60600009 C .892 .65400007 .921 .6740001 .971 .6750001 L .971 .70400008 C .92800006 .7020001 .926 .7020001 .882 .7020001 C .856 .7020001 .80200007 .7020001 .778 .70400008 L .778 .6750001 C .83900007 .6740001 .857 .6420001 .857 .62200006 C .857 .61700007 .85400006 .609 .852 .60200008 L .7 .128 L .538 .63100007 C .537 .63400009 .535 .6420001 .535 .64500007 C .535 .6750001 .588 .6750001 .612 .6750001 L .612 .70400008 C .588 .7020001 .514 .7020001 .48500005 .7020001 C .45600004 .7020001 .39500005 .7020001 .36900003 .70400008 L .36900003 .6750001 C .42200003 .6750001 .43600003 .67200008 .44700004 .65400007 C .45400004 .64100006 .46100004 .6100001 .47400005 .57400009 L .33100004 .128 L .171 .62600007 C .16600001 .64000007 .16600001 .6420001 .16600001 .64500007 C .16600001 .6750001 .21700001 .6750001 .24300002 .6750001 L .24300002 .70400008 C .22000002 .7020001 .14400001 .7020001 .116 .7020001 C .087 .7020001 .026 .7020001 0 .70400008 L 0 .6750001 C .054 .6750001 .073 .6750001 .08500001 .6370001 L .28300003 .019000002 C .28800003 .0040000008 .29200004 0 .30100004 0 C .30900003 0 .31400005 .0030000006 .31900005 .018000002 L .48500005 .53700008 L .652 .018000002 C .657 .0030000006 .662 0 .67 0 C .679 0 .683 .0040000008 .688 .019000002 L .87600007 .60600009 Z "/>
</symbol>
<symbol id="font_0_16">
<path d="M .18100001 .60700008 C .18100001 .64400008 .18400002 .65400007 .259 .65400007 L .281 .65400007 L .281 .683 C .257 .68100008 .17100002 .68100008 .141 .68100008 C .111 .68100008 .024 .68100008 0 .683 L 0 .65400007 L .022 .65400007 C .097 .65400007 .10000001 .64400008 .10000001 .60700008 L .10000001 .076000008 C .10000001 .039 .097 .029000001 .022 .029000001 L 0 .029000001 L 0 0 C .024 .002 .110000018 .002 .14000002 .002 C .17000002 .002 .257 .002 .281 0 L .281 .029000001 L .259 .029000001 C .18400002 .029000001 .18100001 .039 .18100001 .076000008 L .18100001 .60700008 Z "/>
</symbol>
<symbol id="font_0_1d">
<path d="M .154 .43800003 C .103 .451 .058000003 .50100007 .058000003 .56500008 C .058000003 .63500007 .11400001 .6980001 .192 .6980001 C .35600005 .6980001 .37800003 .5360001 .38400004 .49300004 C .38600005 .481 .38600005 .47700004 .39600004 .47700004 C .40700004 .47700004 .40700004 .48200003 .40700004 .50000008 L .40700004 .7020001 C .40700004 .7200001 .40700004 .7250001 .39700005 .7250001 C .39400003 .7250001 .39000006 .7250001 .38300003 .7120001 L .35000003 .6510001 C .30200003 .71300008 .23600002 .7250001 .192 .7250001 C .081 .7250001 0 .63600006 0 .53400006 C 0 .48600004 .017 .44200004 .054 .402 C .089 .363 .124 .354 .19500001 .33600004 C .23 .328 .28500004 .314 .29900003 .308 C .34600003 .285 .37700004 .231 .37700004 .17500001 C .37700004 .10000001 .32400004 .029000003 .24100001 .029000003 C .196 .029000003 .134 .040000004 .08500001 .083000008 C .026999999 .135 .023000006 .207 .022000004 .24000001 C .021000002 .24800001 .013 .24800001 .011000004 .24800001 C 0 .24800001 0 .24300002 0 .22500001 L 0 .023000002 C 0 .005000001 0 0 .010000002 0 C .015999999 0 .017 .0020000004 .024 .014000001 C .028 .022000002 .049000008 .059000005 .057000009 .074 C .092999998 .034 .156 0 .242 0 C .35400004 0 .43500004 .095 .43500004 .20500002 C .43500004 .266 .41200004 .31100003 .38500003 .344 C .34800003 .38900004 .30300004 .4 .26400004 .41000004 L .154 .43800003 Z "/>
</symbol>
<use xlink:href="#font_0_12" transform="matrix(11.9552,0,0,-11.9552,119.32612,183.51502)"/>
<use xlink:href="#font_0_13" transform="matrix(11.9552,0,0,-11.9552,128.25666,183.51502)"/>
<use xlink:href="#font_0_1b" transform="matrix(11.9552,0,0,-11.9552,136.23078,183.51502)"/>
<use xlink:href="#font_0_1e" transform="matrix(11.9552,0,0,-11.9552,144.10924,183.51502)"/>
<use xlink:href="#font_0_15" transform="matrix(11.9552,0,0,-11.9552,152.6333,183.51502)"/>
<use xlink:href="#font_0_21" transform="matrix(11.9552,0,0,-11.9552,161.12149,183.76607)"/>
<use xlink:href="#font_0_16" transform="matrix(11.9552,0,0,-11.9552,173.37558,183.51502)"/>
<use xlink:href="#font_0_1d" transform="matrix(11.9552,0,0,-11.9552,177.81096,183.76607)"/>
<use xlink:href="#font_0_13" transform="matrix(11.9552,0,0,-11.9552,184.15917,183.51502)"/>
<path transform="matrix(1,0,0,-1,192.343,183.31604)" stroke-width=".398" stroke-linecap="butt" stroke-miterlimit="10" stroke-linejoin="miter" fill="none" stroke="#000000" d="M 0 0 L 3.512 0 "/>
<symbol id="font_0_1a">
<path d="M .653 .36 C .653 .56700006 .501 .7250001 .32700003 .7250001 C .149 .7250001 0 .56500008 0 .36 C 0 .157 .15100001 0 .32600004 0 C .505 0 .653 .15900001 .653 .36 M .32700003 .023000002 C .22500001 .023000002 .092999998 .119 .092999998 .375 C .092999998 .62000009 .23200001 .70300009 .32600004 .70300009 C .42500005 .70300009 .56 .61700007 .56 .375 C .56 .11500001 .42400003 .023000002 .32700003 .023000002 Z "/>
</symbol>
<symbol id="font_0_20">
<path d="M .593 .6050001 C .602 .63000008 .619 .6740001 .697 .6750001 L .697 .70400008 C .646 .7020001 .64400008 .7020001 .605 .7020001 C .578 .7020001 .528 .7020001 .503 .70400008 L .503 .6750001 C .554 .6740001 .569 .646 .569 .62600007 C .569 .62000009 .569 .61800006 .563 .60400006 L .37600003 .111 L .179 .63100007 C .174 .6420001 .174 .64400008 .174 .646 C .174 .6750001 .224 .6750001 .24900002 .6750001 L .24900002 .70400008 C .22500001 .7020001 .149 .7020001 .12000001 .7020001 C .09200001 .7020001 .024000003 .7020001 0 .70400008 L 0 .6750001 C .062000008 .6750001 .078 .6750001 .09300001 .63500007 L .32700003 .019000002 C .33200003 .005000001 .33400003 0 .34800003 0 C .36200003 0 .363 .0030000006 .37 .020000002 L .593 .6050001 Z "/>
</symbol>
<use xlink:href="#font_0_11" transform="matrix(11.9552,0,0,-11.9552,196.50058,183.76607)"/>
<use xlink:href="#font_0_1a" transform="matrix(11.9552,0,0,-11.9552,204.95291,183.76607)"/>
<use xlink:href="#font_0_19" transform="matrix(11.9552,0,0,-11.9552,213.90735,183.51502)"/>
<use xlink:href="#font_0_20" transform="matrix(11.9552,0,0,-11.9552,222.4075,183.76607)"/>
<path transform="matrix(1,0,0,-1,231.667,183.31604)" stroke-width=".398" stroke-linecap="butt" stroke-miterlimit="10" stroke-linejoin="miter" fill="none" stroke="#000000" d="M 0 0 L 3.512 0 "/>
<symbol id="font_0_7">
<path d="M .39100004 .16800002 L .36900003 .16800002 C .36600004 .15100001 .358 .096 .34800003 .080000009 C .34100003 .071 .284 .071 .254 .071 L .069000009 .071 C .09600001 .094000007 .157 .158 .183 .18200001 C .335 .32200004 .39100004 .374 .39100004 .47300003 C .39100004 .588 .3 .665 .18400002 .665 C .068 .665 0 .56600007 0 .48000003 C 0 .42900003 .044 .42900003 .047 .42900003 C .068 .42900003 .094000007 .44400005 .094000007 .476 C .094000007 .504 .075 .523 .047 .523 C .038000004 .523 .036 .523 .033 .522 C .052 .59000006 .106 .63600006 .171 .63600006 C .256 .63600006 .30800004 .565 .30800004 .47300003 C .30800004 .388 .25900004 .314 .20200002 .25 L 0 .024 L 0 0 L .36500005 0 L .39100004 .16800002 Z "/>
</symbol>
<symbol id="font_0_b">
<path d="M .082 .36900003 C .082 .62200006 .20500002 .66200008 .259 .66200008 C .29500003 .66200008 .331 .6510001 .35000003 .62100008 C .338 .62100008 .3 .62100008 .3 .58000007 C .3 .558 .315 .53900006 .34100003 .53900006 C .366 .53900006 .38300003 .5540001 .38300003 .58300009 C .38300003 .63500007 .345 .68600007 .25800003 .68600007 C .132 .68600007 0 .55700007 0 .337 C 0 .062000004 .12000001 0 .20500002 0 C .314 0 .407 .095 .407 .22500001 C .407 .358 .314 .44700004 .21400002 .44700004 C .125 .44700004 .092 .37 .082 .342 L .082 .36900003 M .20500002 .027000003 C .14200002 .027000003 .11200001 .083000008 .10300001 .104 C .094000007 .13000001 .084 .179 .084 .24900002 C .084 .328 .12000001 .42700003 .21000001 .42700003 C .26500003 .42700003 .294 .39000003 .30900003 .356 C .32500003 .319 .32500003 .26900003 .32500003 .22600001 C .32500003 .17500001 .32500003 .13000001 .306 .09200001 C .28100003 .044000005 .245 .027000003 .20500002 .027000003 Z "/>
</symbol>
<symbol id="font_0_e">
<path d="M .32500003 .312 C .32500003 .076000008 .22 .027000003 .16 .027000003 C .136 .027000003 .083000008 .030000002 .058000007 .065000008 L .064 .065000008 C .071 .06300001 .107 .069000009 .107 .106000009 C .107 .128 .092 .147 .06600001 .147 C .04 .147 .024000004 .13000001 .024000004 .104 C .024000004 .042000005 .074 0 .16100002 0 C .286 0 .407 .133 .407 .35000003 C .407 .6190001 .29500003 .68600007 .20700002 .68600007 C .09700001 .68600007 0 .59400007 0 .462 C 0 .33 .093 .24000001 .19300002 .24000001 C .26700003 .24000001 .305 .294 .32500003 .345 L .32500003 .312 M .197 .26000003 C .134 .26000003 .107 .31100003 .09800001 .33 C .082 .368 .082 .416 .082 .46100004 C .082 .517 .082 .56500008 .108 .60600009 C .12600002 .6330001 .153 .66200008 .20700002 .66200008 C .264 .66200008 .293 .61200007 .303 .58900007 C .323 .5400001 .323 .455 .323 .44000004 C .323 .356 .285 .26000003 .197 .26000003 Z "/>
</symbol>
<symbol id="font_0_6">
<path d="M .19700001 .64100006 C .19700001 .66400006 .19700001 .665 .177 .665 C .15300001 .638 .103 .601 0 .601 L 0 .572 C .023000002 .572 .073 .572 .128 .59800007 L .128 .07700001 C .128 .041 .125 .029000001 .037 .029000001 L .0059999974 .029000001 L .0059999974 0 C .033 .002 .13000001 .002 .163 .002 C .196 .002 .292 .002 .319 0 L .319 .029000001 L .288 .029000001 C .2 .029000001 .19700001 .041 .19700001 .07700001 L .19700001 .64100006 Z "/>
</symbol>
<symbol id="font_0_5">
<path d="M .407 .34100003 C .407 .42400003 .402 .50500008 .366 .58100005 C .32500003 .66400006 .253 .68600007 .204 .68600007 C .146 .68600007 .075 .65700009 .038000004 .57400009 C .010000002 .51100006 0 .44900004 0 .34100003 C 0 .244 .0069999995 .171 .043000007 .10000001 C .082 .024000003 .151 0 .20300001 0 C .29000003 0 .34 .052 .36900003 .11 C .405 .185 .407 .28300003 .407 .34100003 M .20300001 .020000002 C .171 .020000002 .106 .038000004 .087000008 .147 C .076000008 .207 .076000008 .28300003 .076000008 .35300002 C .076000008 .43500004 .076000008 .50900009 .092 .5680001 C .109000008 .63500007 .16 .66600009 .20300001 .66600009 C .241 .66600009 .299 .64300009 .31800003 .55700007 C .331 .50000008 .331 .421 .331 .35300002 C .331 .286 .331 .21000001 .32000003 .149 C .301 .039000006 .238 .020000002 .20300001 .020000002 Z "/>
</symbol>
<symbol id="font_0_d">
<path d="M .257 .38200004 C .307 .409 .38000003 .455 .38000003 .53900006 C .38000003 .62600007 .296 .68600007 .204 .68600007 C .10500001 .68600007 .027000003 .61300006 .027000003 .5220001 C .027000003 .488 .037 .45400004 .065000008 .42000003 C .076000008 .407 .07700001 .40600003 .14700002 .35700003 C .050000006 .312 0 .245 0 .172 C 0 .066 .101 0 .20300001 0 C .314 0 .407 .082 .407 .187 C .407 .289 .335 .33400003 .257 .38200004 M .121 .47200004 C .108 .481 .068 .507 .068 .55600008 C .068 .62100008 .136 .66200008 .20300001 .66200008 C .275 .66200008 .33900003 .6100001 .33900003 .53800007 C .33900003 .47700004 .29500003 .428 .23700002 .39600004 L .121 .47200004 M .16800002 .34300003 L .289 .26400004 C .315 .24700001 .361 .216 .361 .155 C .361 .079 .284 .027000003 .204 .027000003 C .11900001 .027000003 .046000005 .089 .046000005 .172 C .046000005 .25000004 .10300001 .31300003 .16800002 .34300003 Z "/>
</symbol>
<symbol id="font_0_3">
<path d="M .09700001 .049000004 C .09700001 .076000008 .07400001 .097 .049000004 .097 C .020000004 .097 0 .074 0 .049000004 C 0 .019000002 .024999999 0 .048 0 C .074999999 0 .09700001 .021000002 .09700001 .049000004 Z "/>
</symbol>
<symbol id="font_0_8">
<path d="M .143 .38000003 C .12600002 .379 .122 .37800003 .122 .36900003 C .122 .35900004 .127 .35900004 .14500001 .35900004 L .19100002 .35900004 C .276 .35900004 .314 .289 .314 .193 C .314 .062000004 .24599999 .027000003 .197 .027000003 C .14900002 .027000003 .067 .050000006 .038000004 .11600001 C .07000001 .111 .099 .12900001 .099 .165 C .099 .194 .078 .214 .050000006 .214 C .026 .214 0 .2 0 .162 C 0 .073 .08900001 0 .20000002 0 C .319 0 .407 .091000009 .407 .192 C .407 .284 .333 .356 .23700002 .37300004 C .324 .398 .38000003 .47100003 .38000003 .549 C .38000003 .6280001 .298 .68600007 .201 .68600007 C .101 .68600007 .027000003 .62500008 .027000003 .55200007 C .027000003 .512 .058000007 .504 .07300001 .504 C .094000007 .504 .11800001 .51900008 .11800001 .549 C .11800001 .58100005 .094000007 .595 .072000008 .595 C .06600001 .595 .064 .595 .061000006 .59400007 C .099 .66200008 .19300002 .66200008 .19800002 .66200008 C .231 .66200008 .296 .6470001 .296 .549 C .296 .53000006 .293 .474 .264 .43100003 C .234 .38700003 .20000002 .384 .17300001 .38300003 L .143 .38000003 Z "/>
</symbol>
<symbol id="font_0_24">
<path d="M .134 0 L .134 .036999987 L .037000009 .036999987 L .037000009 .96300008 L .134 .96300008 L .134 1 L 0 1 L 0 0 L .134 0 Z "/>
</symbol>
<symbol id="font_0_31">
<path d="M .404 .635 L .38400004 .635 L .34700004 .54200008 C .32900004 .58000007 .29000003 .635 .21400002 .635 C .10400002 .635 0 .541 0 .409 C 0 .282 .096000019 .184 .20500002 .184 C .259 .184 .30300004 .209 .33900003 .259 L .33900003 .074 C .33900003 .029 .328 .029 .263 .029 L .263 0 C .289 .002000004 .34300003 .002000004 .37100003 .002000004 C .40000005 .002000004 .45400004 .002000004 .48000006 0 L .48000006 .029 C .41600005 .029 .404 .029 .404 .074 L .404 .635 M .34100003 .328 C .34100003 .296 .323 .26700003 .3 .244 C .26400004 .207 .22600001 .20400001 .21100001 .20400001 C .135 .20400001 .076000008 .298 .076000008 .409 C .076000008 .52900007 .14600002 .61300006 .22000003 .61300006 C .29900003 .61300006 .34100003 .527 .34100003 .47500003 L .34100003 .328 Z "/>
</symbol>
<symbol id="font_0_2b">
<path d="M .141 .61600008 C .141 .642 .12000001 .665 .092 .665 C .06600001 .665 .044000009 .64400008 .044000009 .61700007 C .044000009 .587 .068 .568 .092 .568 C .123 .568 .141 .59400007 .141 .61600008 M .0030000024 .43 L .0030000024 .40100003 C .067 .40100003 .076000008 .395 .076000008 .34600003 L .076000008 .074 C .076000008 .029000001 .065000008 .029000001 0 .029000001 L 0 0 C .028000005 .002 .076000008 .002 .10500001 .002 C .116000007 .002 .17400003 .002 .208 0 L .208 .029000001 C .143 .029000001 .139 .034 .139 .07300001 L .139 .441 L .0030000024 .43 Z "/>
</symbol>
<symbol id="font_0_2c">
<path d="M .139 .694 L 0 .683 L 0 .65400007 C .068 .65400007 .076000008 .647 .076000008 .59800007 L .076000008 .074 C .076000008 .029000001 .065000008 .029000001 0 .029000001 L 0 0 C .028000005 .002 .07700001 .002 .107 .002 C .137 .002 .187 .002 .215 0 L .215 .029000001 C .15100003 .029000001 .139 .029000001 .139 .074 L .139 .694 Z "/>
</symbol>
<symbol id="font_0_4">
<path d="M .37600003 .96400007 C .38100005 .97700008 .38100005 .97900006 .38100005 .981 C .38100005 .994 .37100003 1 .36300005 1 C .35000003 1 .34700004 .99100008 .34200005 .97800007 L .0050000029 .035999985 C 0 .022999987 0 .020999983 0 .018999994 C 0 .007999986 .008000001 0 .019000005 0 C .032 0 .035 .00999999 .039 .020999983 L .37600003 .96400007 Z "/>
</symbol>
<symbol id="font_0_28">
<path d="M .32700003 .38 C .31500004 .38 .27800004 .38 .27800004 .33900003 C .27800004 .315 .29500003 .298 .319 .298 C .342 .298 .36100004 .312 .36100004 .34100003 C .36100004 .40800003 .291 .456 .21000001 .456 C .09300001 .456 0 .352 0 .22600001 C 0 .098000008 .096000019 0 .20900002 0 C .34100003 0 .37100003 .120000008 .37100003 .12900001 C .37100003 .13800001 .36400003 .13800001 .36100004 .13800001 C .35200004 .13800001 .351 .135 .34800003 .123 C .32600004 .052000006 .272 .022 .21800003 .022 C .157 .022 .076000008 .075 .076000008 .22700002 C .076000008 .393 .16100002 .43400003 .21100001 .43400003 C .24900002 .43400003 .30400003 .419 .32700003 .38 Z "/>
</symbol>
<symbol id="font_0_36">
<path d="M .39000003 .34600003 C .39900003 .368 .416 .411 .48000003 .412 L .48000003 .441 C .451 .439 .437 .439 .40600003 .439 C .38500003 .439 .37 .439 .324 .441 L .324 .412 C .366 .41 .37100003 .38 .37100003 .36900003 C .37100003 .36 .36900003 .35500003 .36400003 .343 L .262 .085 L .15 .367 C .145 .381 .144 .381 .144 .386 C .144 .412 .182 .412 .2 .412 L .2 .441 C .175 .439 .123 .439 .09600001 .439 C .063 .439 .061000006 .439 0 .441 L 0 .412 C .056 .412 .06600001 .40800003 .078 .377 L .221 .019000002 C .22600001 .0050000005 .228 0 .24000001 0 C .24700001 0 .25300003 .0020000004 .26000003 .019000002 L .39000003 .34600003 Z "/>
</symbol>
<symbol id="font_0_1c">
<path d="M .38000003 .361 C .47900004 .384 .55600008 .44700004 .55600008 .52400007 C .55600008 .62100008 .44300003 .70400008 .29900003 .70400008 L 0 .70400008 L 0 .6750001 L .02 .6750001 C .092 .6750001 .095000009 .6650001 .095000009 .6280001 L .095000009 .097 C .095000009 .060000004 .092 .050000006 .02 .050000006 L 0 .050000006 L 0 .021000002 C .023000002 .023000002 .105 .023000002 .134 .023000002 C .16300002 .023000002 .24600002 .023000002 .26900003 .021000002 L .26900003 .050000006 L .24900002 .050000006 C .17700002 .050000006 .174 .060000004 .174 .097 L .174 .35300002 L .29000003 .35300002 C .32900004 .35300002 .36600004 .342 .39300005 .314 C .42700003 .27600003 .42700003 .25500003 .42700003 .186 C .42700003 .10700001 .42700003 .081 .47100003 .038000004 C .486 .023000002 .52800008 0 .58400008 0 C .66200008 0 .675 .087 .675 .10800001 C .675 .11400001 .675 .12300001 .66400006 .12300001 C .65400007 .12300001 .65400007 .117 .65300008 .10700001 C .64800009 .047000003 .619 .020000002 .587 .020000002 C .541 .020000002 .531 .067 .523 .120000008 C .522 .127 .51600006 .17 .513 .19500001 C .50600007 .245 .50200006 .277 .472 .308 C .46100004 .319 .43500004 .34600003 .38000003 .361 M .286 .37300004 L .174 .37300004 L .174 .63500007 C .174 .65800008 .174 .6700001 .19500003 .6740001 C .204 .6750001 .23400003 .6750001 .254 .6750001 C .335 .6750001 .463 .6750001 .463 .52400007 C .463 .437 .41600005 .37300004 .286 .37300004 Z "/>
</symbol>
<symbol id="font_0_25">
<path d="M .134 1 L 0 1 L 0 .96300008 L .097 .96300008 L .097 .036999987 L 0 .036999987 L 0 0 L .134 0 L .134 1 Z "/>
</symbol>
<symbol id="font_0_f">
<path d="M .09700001 .38300003 C .09700001 .41000004 .07400001 .43100003 .049000004 .43100003 C .020000004 .43100003 0 .40800003 0 .38300003 C 0 .35300002 .024999999 .33400003 .048 .33400003 C .074999999 .33400003 .09700001 .35500003 .09700001 .38300003 M .09700001 .049000004 C .09700001 .076000008 .07400001 .097 .049000004 .097 C .020000004 .097 0 .074 0 .049000004 C 0 .019000002 .024999999 0 .048 0 C .074999999 0 .09700001 .021000002 .09700001 .049000004 Z "/>
</symbol>
<use xlink:href="#font_0_7" transform="matrix(11.9552,0,0,-11.9552,235.7648,183.51502)"/>
<use xlink:href="#font_0_12" transform="matrix(11.9552,0,0,-11.9552,241.53917,183.51502)"/>
<use xlink:href="#font_0_b" transform="matrix(11.9552,0,0,-11.9552,266.84834,183.76607)"/>
<use xlink:href="#font_0_e" transform="matrix(11.9552,0,0,-11.9552,272.69444,183.76607)"/>
<use xlink:href="#font_0_6" transform="matrix(11.9552,0,0,-11.9552,279.15025,183.51502)"/>
<use xlink:href="#font_0_7" transform="matrix(11.9552,0,0,-11.9552,284.5062,183.51502)"/>
<use xlink:href="#font_0_5" transform="matrix(11.9552,0,0,-11.9552,290.26863,183.76607)"/>
<use xlink:href="#font_0_5" transform="matrix(11.9552,0,0,-11.9552,296.12669,183.76607)"/>
<use xlink:href="#font_0_d" transform="matrix(11.9552,0,0,-11.9552,321.2924,183.76607)"/>
<use xlink:href="#font_0_3" transform="matrix(11.9552,0,0,-11.9552,327.70039,183.51502)"/>
<use xlink:href="#font_0_e" transform="matrix(11.9552,0,0,-11.9552,330.40226,183.76607)"/>
<use xlink:href="#font_0_e" transform="matrix(11.9552,0,0,-11.9552,336.2603,183.76607)"/>
<use xlink:href="#font_0_8" transform="matrix(11.9552,0,0,-11.9552,342.11839,183.76607)"/>
<use xlink:href="#font_0_1" transform="matrix(11.9552,0,0,-11.9552,348.13185,184.18451)"/>
<use xlink:href="#font_0_24" transform="matrix(11.9552,0,0,-11.9552,378.5339,186.50382)"/>
<use xlink:href="#font_0_33" transform="matrix(11.9552,0,0,-11.9552,380.79344,183.63457)"/>
<use xlink:href="#font_0_2a" transform="matrix(11.9552,0,0,-11.9552,385.37226,183.63457)"/>
<use xlink:href="#font_0_31" transform="matrix(11.9552,0,0,-11.9552,390.63255,185.83432)"/>
<use xlink:href="#font_0_35" transform="matrix(11.9552,0,0,-11.9552,396.77754,183.63457)"/>
<use xlink:href="#font_0_2a" transform="matrix(11.9552,0,0,-11.9552,403.25724,183.63457)"/>
<use xlink:href="#font_0_2e" transform="matrix(11.9552,0,0,-11.9552,408.48167,183.51502)"/>
<use xlink:href="#font_0_34" transform="matrix(11.9552,0,0,-11.9552,414.49513,183.63457)"/>
<use xlink:href="#font_0_2b" transform="matrix(11.9552,0,0,-11.9552,419.2294,183.51502)"/>
<use xlink:href="#font_0_26" transform="matrix(11.9552,0,0,-11.9552,422.6127,183.63457)"/>
<use xlink:href="#font_0_2c" transform="matrix(11.9552,0,0,-11.9552,428.33927,183.51502)"/>
<use xlink:href="#font_0_4" transform="matrix(11.9552,0,0,-11.9552,431.8421,186.50382)"/>
<use xlink:href="#font_0_28" transform="matrix(11.9552,0,0,-11.9552,437.47303,183.63457)"/>
<use xlink:href="#font_0_2f" transform="matrix(11.9552,0,0,-11.9552,442.61375,183.63457)"/>
<use xlink:href="#font_0_2e" transform="matrix(11.9552,0,0,-11.9552,448.49574,183.51502)"/>
<use xlink:href="#font_0_36" transform="matrix(11.9552,0,0,-11.9552,454.5092,183.63457)"/>
<use xlink:href="#font_0_7" transform="matrix(11.9552,0,0,-11.9552,461.06068,183.51502)"/>
<use xlink:href="#font_0_29" transform="matrix(11.9552,0,0,-11.9552,466.75135,183.63457)"/>
<use xlink:href="#font_0_4" transform="matrix(11.9552,0,0,-11.9552,473.48213,186.50382)"/>
<use xlink:href="#font_0_1c" transform="matrix(11.9552,0,0,-11.9552,479.19673,183.76607)"/>
<use xlink:href="#font_0_2a" transform="matrix(11.9552,0,0,-11.9552,487.67295,183.63457)"/>
<use xlink:href="#font_0_2c" transform="matrix(11.9552,0,0,-11.9552,492.90934,183.51502)"/>
<use xlink:href="#font_0_35" transform="matrix(11.9552,0,0,-11.9552,496.14918,183.63457)"/>
<use xlink:href="#font_0_25" transform="matrix(11.9552,0,0,-11.9552,502.5213,186.50382)"/>
<use xlink:href="#font_0_f" transform="matrix(11.9552,0,0,-11.9552,506.56214,183.51502)"/>
<use xlink:href="#font_0_5" transform="matrix(11.9552,0,0,-11.9552,509.264,183.76607)"/>
<path transform="matrix(1,0,0,-1,525.554,187.849)" stroke-width=".398" stroke-linecap="butt" stroke-miterlimit="10" stroke-linejoin="miter" fill="none" stroke="#000000" d="M 0 0 L 0 14.446 "/>
<path transform="matrix(1,0,0,-1,527.546,187.849)" stroke-width=".398" stroke-linecap="butt" stroke-miterlimit="10" stroke-linejoin="miter" fill="none" stroke="#000000" d="M 0 0 L 0 14.446 "/>
<path transform="matrix(1,0,0,-1,110.854,188.04804)" stroke-width=".398" stroke-linecap="butt" stroke-miterlimit="10" stroke-linejoin="miter" fill="none" stroke="#000000" d="M 0 0 L 416.692 0 "/>
<path transform="matrix(1,0,0,-1,110.854,202.693)" stroke-width=".398" stroke-linecap="butt" stroke-miterlimit="10" stroke-linejoin="miter" fill="none" stroke="#000000" d="M 0 0 L 0 14.446 "/>
<path transform="matrix(1,0,0,-1,112.847,202.693)" stroke-width=".398" stroke-linecap="butt" stroke-miterlimit="10" stroke-linejoin="miter" fill="none" stroke="#000000" d="M 0 0 L 0 14.446 "/>
<use xlink:href="#font_0_11" transform="matrix(11.9552,0,0,-11.9552,157.98558,198.61104)"/>
<use xlink:href="#font_0_1a" transform="matrix(11.9552,0,0,-11.9552,166.43791,198.61104)"/>
<use xlink:href="#font_0_19" transform="matrix(11.9552,0,0,-11.9552,175.39235,198.35999)"/>
<use xlink:href="#font_0_20" transform="matrix(11.9552,0,0,-11.9552,183.8925,198.61104)"/>
<path transform="matrix(1,0,0,-1,193.152,198.16004)" stroke-width=".398" stroke-linecap="butt" stroke-miterlimit="10" stroke-linejoin="miter" fill="none" stroke="#000000" d="M 0 0 L 3.512 0 "/>
<symbol id="font_0_c">
<path d="M .42100004 .6420001 L .42100004 .6650001 L .18 .6650001 C .059000005 .6650001 .057000009 .67800006 .053000008 .6970001 L .031 .6970001 L 0 .497 L .022000004 .497 C .025000003 .51500007 .034000007 .5770001 .047000003 .58800008 C .055000005 .59400007 .13000001 .59400007 .14400001 .59400007 L .35600005 .59400007 L .25000004 .44200004 C .223 .40300004 .12200001 .23900001 .12200001 .051000004 C .12200001 .040000004 .12200001 0 .163 0 C .205 0 .205 .039000006 .205 .052 L .205 .102 C .205 .25100003 .22900002 .367 .27600003 .43400003 L .42100004 .6420001 Z "/>
</symbol>
<symbol id="font_0_9">
<path d="M .33400003 .651 C .33400003 .67 .33400003 .675 .32 .675 C .312 .675 .30900003 .675 .301 .66300007 L 0 .19600001 L 0 .16700001 L .263 .16700001 L .263 .076000008 C .263 .039 .261 .029000001 .18800001 .029000001 L .16800002 .029000001 L .16800002 0 C .19100002 .002 .27 .002 .298 .002 C .326 .002 .40600003 .002 .42900003 0 L .42900003 .029000001 L .409 .029000001 C .337 .029000001 .33400003 .039 .33400003 .076000008 L .33400003 .16700001 L .435 .16700001 L .435 .19600001 L .33400003 .19600001 L .33400003 .651 M .268 .573 L .268 .19600001 L .025 .19600001 L .268 .573 Z "/>
</symbol>
<symbol id="font_0_a">
<path d="M .079 .59400007 C .122 .58000007 .157 .57900008 .16800002 .57900008 C .28100003 .57900008 .35300002 .66200008 .35300002 .67600008 C .35300002 .68000009 .351 .68500009 .34500004 .68500009 C .34300003 .68500009 .34100003 .68500009 .33200003 .68100008 C .27600003 .65700009 .22800002 .65400007 .20200002 .65400007 C .136 .65400007 .08900001 .6740001 .07 .68200007 C .063 .68500009 .061000006 .68500009 .060000004 .68500009 C .052 .68500009 .052 .6790001 .052 .66300007 L .052 .36600004 C .052 .34800003 .052 .342 .064 .342 C .069000009 .342 .07 .34300003 .080000009 .35500003 C .108 .39600004 .155 .42000003 .20500002 .42000003 C .25800003 .42000003 .284 .37100003 .29200004 .354 C .30900003 .315 .31000004 .266 .31000004 .22800002 C .31000004 .19000001 .31000004 .133 .28200004 .088 C .26000003 .052 .22100002 .027000003 .17700002 .027000003 C .11100001 .027000003 .046000005 .072000008 .028000005 .14500001 C .033 .143 .039000006 .142 .044 .142 C .061000006 .142 .08800001 .15200001 .08800001 .186 C .08800001 .214 .069000009 .23 .044 .23 C .026 .23 0 .221 0 .18200001 C 0 .097 .068 0 .17900002 0 C .29200004 0 .39100004 .095 .39100004 .222 C .39100004 .34100003 .31100003 .44000004 .20600003 .44000004 C .14900002 .44000004 .10500001 .41500003 .079 .38700003 L .079 .59400007 Z "/>
</symbol>
<use xlink:href="#font_0_7" transform="matrix(11.9552,0,0,-11.9552,197.2498,198.35999)"/>
<use xlink:href="#font_0_12" transform="matrix(11.9552,0,0,-11.9552,203.02417,198.35999)"/>
<use xlink:href="#font_0_7" transform="matrix(11.9552,0,0,-11.9552,264.00767,198.35999)"/>
<use xlink:href="#font_0_c" transform="matrix(11.9552,0,0,-11.9552,269.92549,198.61104)"/>
<use xlink:href="#font_0_b" transform="matrix(11.9552,0,0,-11.9552,275.62815,198.61104)"/>
<use xlink:href="#font_0_9" transform="matrix(11.9552,0,0,-11.9552,281.31883,198.35999)"/>
<use xlink:href="#font_0_d" transform="matrix(11.9552,0,0,-11.9552,287.34428,198.61104)"/>
<use xlink:href="#font_0_5" transform="matrix(11.9552,0,0,-11.9552,293.20234,198.61104)"/>
<use xlink:href="#font_0_5" transform="matrix(11.9552,0,0,-11.9552,299.0604,198.61104)"/>
<use xlink:href="#font_0_8" transform="matrix(11.9552,0,0,-11.9552,318.36808,198.61104)"/>
<use xlink:href="#font_0_a" transform="matrix(11.9552,0,0,-11.9552,324.32179,198.61104)"/>
<use xlink:href="#font_0_3" transform="matrix(11.9552,0,0,-11.9552,330.63414,198.35999)"/>
<use xlink:href="#font_0_e" transform="matrix(11.9552,0,0,-11.9552,333.336,198.61104)"/>
<use xlink:href="#font_0_c" transform="matrix(11.9552,0,0,-11.9552,339.34947,198.61104)"/>
<use xlink:href="#font_0_8" transform="matrix(11.9552,0,0,-11.9552,345.05213,198.61104)"/>
<use xlink:href="#font_0_1" transform="matrix(11.9552,0,0,-11.9552,351.06559,199.02948)"/>
<use xlink:href="#font_0_24" transform="matrix(11.9552,0,0,-11.9552,373.51747,201.34879)"/>
<use xlink:href="#font_0_33" transform="matrix(11.9552,0,0,-11.9552,375.77699,198.47954)"/>
<use xlink:href="#font_0_2a" transform="matrix(11.9552,0,0,-11.9552,380.3558,198.47954)"/>
<use xlink:href="#font_0_31" transform="matrix(11.9552,0,0,-11.9552,385.6161,200.67929)"/>
<use xlink:href="#font_0_35" transform="matrix(11.9552,0,0,-11.9552,391.76109,198.47954)"/>
<use xlink:href="#font_0_2a" transform="matrix(11.9552,0,0,-11.9552,398.24079,198.47954)"/>
<use xlink:href="#font_0_2e" transform="matrix(11.9552,0,0,-11.9552,403.4652,198.35999)"/>
<use xlink:href="#font_0_34" transform="matrix(11.9552,0,0,-11.9552,409.4667,198.47954)"/>
<use xlink:href="#font_0_2b" transform="matrix(11.9552,0,0,-11.9552,414.201,198.35999)"/>
<use xlink:href="#font_0_26" transform="matrix(11.9552,0,0,-11.9552,417.5843,198.47954)"/>
<use xlink:href="#font_0_2c" transform="matrix(11.9552,0,0,-11.9552,423.31086,198.35999)"/>
<use xlink:href="#font_0_4" transform="matrix(11.9552,0,0,-11.9552,426.8137,201.34879)"/>
<use xlink:href="#font_0_28" transform="matrix(11.9552,0,0,-11.9552,432.4446,198.47954)"/>
<use xlink:href="#font_0_2f" transform="matrix(11.9552,0,0,-11.9552,437.58534,198.47954)"/>
<use xlink:href="#font_0_2e" transform="matrix(11.9552,0,0,-11.9552,443.46733,198.35999)"/>
<use xlink:href="#font_0_36" transform="matrix(11.9552,0,0,-11.9552,449.48078,198.47954)"/>
<use xlink:href="#font_0_7" transform="matrix(11.9552,0,0,-11.9552,456.03227,198.35999)"/>
<use xlink:href="#font_0_29" transform="matrix(11.9552,0,0,-11.9552,461.72294,198.47954)"/>
<path transform="matrix(1,0,0,-1,468.429,198.16004)" stroke-width=".398" stroke-linecap="butt" stroke-miterlimit="10" stroke-linejoin="miter" fill="none" stroke="#000000" d="M 0 0 L 3.512 0 "/>
<use xlink:href="#font_0_6" transform="matrix(11.9552,0,0,-11.9552,473.02894,198.35999)"/>
<use xlink:href="#font_0_4" transform="matrix(11.9552,0,0,-11.9552,478.44465,201.34879)"/>
<use xlink:href="#font_0_1c" transform="matrix(11.9552,0,0,-11.9552,484.15925,198.61104)"/>
<use xlink:href="#font_0_2a" transform="matrix(11.9552,0,0,-11.9552,492.63548,198.47954)"/>
<use xlink:href="#font_0_2c" transform="matrix(11.9552,0,0,-11.9552,497.87187,198.35999)"/>
<use xlink:href="#font_0_35" transform="matrix(11.9552,0,0,-11.9552,501.1117,198.47954)"/>
<use xlink:href="#font_0_25" transform="matrix(11.9552,0,0,-11.9552,507.48384,201.34879)"/>
<use xlink:href="#font_0_f" transform="matrix(11.9552,0,0,-11.9552,511.52467,198.35999)"/>
<use xlink:href="#font_0_6" transform="matrix(11.9552,0,0,-11.9552,514.82437,198.35999)"/>
<path transform="matrix(1,0,0,-1,525.554,202.693)" stroke-width=".398" stroke-linecap="butt" stroke-miterlimit="10" stroke-linejoin="miter" fill="none" stroke="#000000" d="M 0 0 L 0 14.446 "/>
<path transform="matrix(1,0,0,-1,527.546,202.693)" stroke-width=".398" stroke-linecap="butt" stroke-miterlimit="10" stroke-linejoin="miter" fill="none" stroke="#000000" d="M 0 0 L 0 14.446 "/>
<path transform="matrix(1,0,0,-1,110.854,202.893)" stroke-width=".398" stroke-linecap="butt" stroke-miterlimit="10" stroke-linejoin="miter" fill="none" stroke="#000000" d="M 0 0 L 416.692 0 "/>
<path transform="matrix(1,0,0,-1,110.854,217.53803)" stroke-width=".398" stroke-linecap="butt" stroke-miterlimit="10" stroke-linejoin="miter" fill="none" stroke="#000000" d="M 0 0 L 0 14.446 "/>
<path transform="matrix(1,0,0,-1,112.847,217.53803)" stroke-width=".398" stroke-linecap="butt" stroke-miterlimit="10" stroke-linejoin="miter" fill="none" stroke="#000000" d="M 0 0 L 0 14.446 "/>
<use xlink:href="#font_0_11" transform="matrix(11.9552,0,0,-11.9552,157.98558,213.4551)"/>
<use xlink:href="#font_0_1a" transform="matrix(11.9552,0,0,-11.9552,166.43791,213.4551)"/>
<use xlink:href="#font_0_19" transform="matrix(11.9552,0,0,-11.9552,175.39235,213.20404)"/>
<use xlink:href="#font_0_20" transform="matrix(11.9552,0,0,-11.9552,183.8925,213.4551)"/>
<path transform="matrix(1,0,0,-1,193.152,213.005)" stroke-width=".398" stroke-linecap="butt" stroke-miterlimit="10" stroke-linejoin="miter" fill="none" stroke="#000000" d="M 0 0 L 3.512 0 "/>
<use xlink:href="#font_0_7" transform="matrix(11.9552,0,0,-11.9552,197.2498,213.20404)"/>
<use xlink:href="#font_0_12" transform="matrix(11.9552,0,0,-11.9552,203.02417,213.20404)"/>
<use xlink:href="#font_0_6" transform="matrix(11.9552,0,0,-11.9552,264.50978,213.20404)"/>
<use xlink:href="#font_0_8" transform="matrix(11.9552,0,0,-11.9552,269.77009,213.4551)"/>
<use xlink:href="#font_0_d" transform="matrix(11.9552,0,0,-11.9552,275.62815,213.4551)"/>
<use xlink:href="#font_0_7" transform="matrix(11.9552,0,0,-11.9552,281.58186,213.20404)"/>
<use xlink:href="#font_0_9" transform="matrix(11.9552,0,0,-11.9552,287.17689,213.20404)"/>
<use xlink:href="#font_0_5" transform="matrix(11.9552,0,0,-11.9552,293.20234,213.4551)"/>
<use xlink:href="#font_0_5" transform="matrix(11.9552,0,0,-11.9552,299.0604,213.4551)"/>
<use xlink:href="#font_0_6" transform="matrix(11.9552,0,0,-11.9552,318.96583,213.20404)"/>
<use xlink:href="#font_0_c" transform="matrix(11.9552,0,0,-11.9552,324.38154,213.4551)"/>
<use xlink:href="#font_0_3" transform="matrix(11.9552,0,0,-11.9552,330.63414,213.20404)"/>
<use xlink:href="#font_0_e" transform="matrix(11.9552,0,0,-11.9552,333.336,213.4551)"/>
<use xlink:href="#font_0_d" transform="matrix(11.9552,0,0,-11.9552,339.19407,213.4551)"/>
<use xlink:href="#font_0_c" transform="matrix(11.9552,0,0,-11.9552,345.20753,213.4551)"/>
<use xlink:href="#font_0_1" transform="matrix(11.9552,0,0,-11.9552,351.06559,213.87354)"/>
<use xlink:href="#font_0_24" transform="matrix(11.9552,0,0,-11.9552,373.51747,216.19284)"/>
<use xlink:href="#font_0_33" transform="matrix(11.9552,0,0,-11.9552,375.77699,213.3236)"/>
<use xlink:href="#font_0_2a" transform="matrix(11.9552,0,0,-11.9552,380.3558,213.3236)"/>
<use xlink:href="#font_0_31" transform="matrix(11.9552,0,0,-11.9552,385.6161,215.52335)"/>
<use xlink:href="#font_0_35" transform="matrix(11.9552,0,0,-11.9552,391.76109,213.3236)"/>
<use xlink:href="#font_0_2a" transform="matrix(11.9552,0,0,-11.9552,398.24079,213.3236)"/>
<use xlink:href="#font_0_2e" transform="matrix(11.9552,0,0,-11.9552,403.4652,213.20404)"/>
<use xlink:href="#font_0_34" transform="matrix(11.9552,0,0,-11.9552,409.4667,213.3236)"/>
<use xlink:href="#font_0_2b" transform="matrix(11.9552,0,0,-11.9552,414.201,213.20404)"/>
<use xlink:href="#font_0_26" transform="matrix(11.9552,0,0,-11.9552,417.5843,213.3236)"/>
<use xlink:href="#font_0_2c" transform="matrix(11.9552,0,0,-11.9552,423.31086,213.20404)"/>
<use xlink:href="#font_0_4" transform="matrix(11.9552,0,0,-11.9552,426.8137,216.19284)"/>
<use xlink:href="#font_0_28" transform="matrix(11.9552,0,0,-11.9552,432.4446,213.3236)"/>
<use xlink:href="#font_0_2f" transform="matrix(11.9552,0,0,-11.9552,437.58534,213.3236)"/>
<use xlink:href="#font_0_2e" transform="matrix(11.9552,0,0,-11.9552,443.46733,213.20404)"/>
<use xlink:href="#font_0_36" transform="matrix(11.9552,0,0,-11.9552,449.48078,213.3236)"/>
<use xlink:href="#font_0_7" transform="matrix(11.9552,0,0,-11.9552,456.03227,213.20404)"/>
<use xlink:href="#font_0_29" transform="matrix(11.9552,0,0,-11.9552,461.72294,213.3236)"/>
<path transform="matrix(1,0,0,-1,468.429,213.005)" stroke-width=".398" stroke-linecap="butt" stroke-miterlimit="10" stroke-linejoin="miter" fill="none" stroke="#000000" d="M 0 0 L 3.512 0 "/>
<use xlink:href="#font_0_7" transform="matrix(11.9552,0,0,-11.9552,472.52684,213.20404)"/>
<use xlink:href="#font_0_4" transform="matrix(11.9552,0,0,-11.9552,478.44465,216.19284)"/>
<use xlink:href="#font_0_1c" transform="matrix(11.9552,0,0,-11.9552,484.15925,213.4551)"/>
<use xlink:href="#font_0_2a" transform="matrix(11.9552,0,0,-11.9552,492.63548,213.3236)"/>
<use xlink:href="#font_0_2c" transform="matrix(11.9552,0,0,-11.9552,497.87187,213.20404)"/>
<use xlink:href="#font_0_35" transform="matrix(11.9552,0,0,-11.9552,501.1117,213.3236)"/>
<use xlink:href="#font_0_25" transform="matrix(11.9552,0,0,-11.9552,507.48384,216.19284)"/>
<use xlink:href="#font_0_f" transform="matrix(11.9552,0,0,-11.9552,511.52467,213.20404)"/>
<use xlink:href="#font_0_7" transform="matrix(11.9552,0,0,-11.9552,514.3222,213.20404)"/>
<path transform="matrix(1,0,0,-1,525.554,217.53803)" stroke-width=".398" stroke-linecap="butt" stroke-miterlimit="10" stroke-linejoin="miter" fill="none" stroke="#000000" d="M 0 0 L 0 14.446 "/>
<path transform="matrix(1,0,0,-1,527.546,217.53803)" stroke-width=".398" stroke-linecap="butt" stroke-miterlimit="10" stroke-linejoin="miter" fill="none" stroke="#000000" d="M 0 0 L 0 14.446 "/>
<path transform="matrix(1,0,0,-1,110.854,217.737)" stroke-width=".398" stroke-linecap="butt" stroke-miterlimit="10" stroke-linejoin="miter" fill="none" stroke="#000000" d="M 0 0 L 416.692 0 "/>
<path transform="matrix(1,0,0,-1,110.854,232.38202)" stroke-width=".398" stroke-linecap="butt" stroke-miterlimit="10" stroke-linejoin="miter" fill="none" stroke="#000000" d="M 0 0 L 0 14.446 "/>
<path transform="matrix(1,0,0,-1,112.847,232.38202)" stroke-width=".398" stroke-linecap="butt" stroke-miterlimit="10" stroke-linejoin="miter" fill="none" stroke="#000000" d="M 0 0 L 0 14.446 "/>
<use xlink:href="#font_0_11" transform="matrix(11.9552,0,0,-11.9552,157.98558,228.29909)"/>
<use xlink:href="#font_0_1a" transform="matrix(11.9552,0,0,-11.9552,166.43791,228.29909)"/>
<use xlink:href="#font_0_19" transform="matrix(11.9552,0,0,-11.9552,175.39235,228.04804)"/>
<use xlink:href="#font_0_20" transform="matrix(11.9552,0,0,-11.9552,183.8925,228.29909)"/>
<path transform="matrix(1,0,0,-1,193.152,227.849)" stroke-width=".398" stroke-linecap="butt" stroke-miterlimit="10" stroke-linejoin="miter" fill="none" stroke="#000000" d="M 0 0 L 3.512 0 "/>
<use xlink:href="#font_0_7" transform="matrix(11.9552,0,0,-11.9552,197.2498,228.04804)"/>
<use xlink:href="#font_0_12" transform="matrix(11.9552,0,0,-11.9552,203.02417,228.04804)"/>
<use xlink:href="#font_0_7" transform="matrix(11.9552,0,0,-11.9552,264.00767,228.04804)"/>
<use xlink:href="#font_0_c" transform="matrix(11.9552,0,0,-11.9552,269.92549,228.29909)"/>
<use xlink:href="#font_0_b" transform="matrix(11.9552,0,0,-11.9552,275.62815,228.29909)"/>
<use xlink:href="#font_0_9" transform="matrix(11.9552,0,0,-11.9552,281.31883,228.04804)"/>
<use xlink:href="#font_0_d" transform="matrix(11.9552,0,0,-11.9552,287.34428,228.29909)"/>
<use xlink:href="#font_0_5" transform="matrix(11.9552,0,0,-11.9552,293.20234,228.29909)"/>
<use xlink:href="#font_0_5" transform="matrix(11.9552,0,0,-11.9552,299.0604,228.29909)"/>
<use xlink:href="#font_0_8" transform="matrix(11.9552,0,0,-11.9552,318.36808,228.29909)"/>
<use xlink:href="#font_0_a" transform="matrix(11.9552,0,0,-11.9552,324.32179,228.29909)"/>
<use xlink:href="#font_0_3" transform="matrix(11.9552,0,0,-11.9552,330.63414,228.04804)"/>
<use xlink:href="#font_0_e" transform="matrix(11.9552,0,0,-11.9552,333.336,228.29909)"/>
<use xlink:href="#font_0_c" transform="matrix(11.9552,0,0,-11.9552,339.34947,228.29909)"/>
<use xlink:href="#font_0_8" transform="matrix(11.9552,0,0,-11.9552,345.05213,228.29909)"/>
<use xlink:href="#font_0_1" transform="matrix(11.9552,0,0,-11.9552,351.06559,228.71753)"/>
<use xlink:href="#font_0_24" transform="matrix(11.9552,0,0,-11.9552,373.51747,231.03684)"/>
<use xlink:href="#font_0_33" transform="matrix(11.9552,0,0,-11.9552,375.77699,228.16759)"/>
<use xlink:href="#font_0_2a" transform="matrix(11.9552,0,0,-11.9552,380.3558,228.16759)"/>
<use xlink:href="#font_0_31" transform="matrix(11.9552,0,0,-11.9552,385.6161,230.36734)"/>
<use xlink:href="#font_0_35" transform="matrix(11.9552,0,0,-11.9552,391.76109,228.16759)"/>
<use xlink:href="#font_0_2a" transform="matrix(11.9552,0,0,-11.9552,398.24079,228.16759)"/>
<use xlink:href="#font_0_2e" transform="matrix(11.9552,0,0,-11.9552,403.4652,228.04804)"/>
<use xlink:href="#font_0_34" transform="matrix(11.9552,0,0,-11.9552,409.4667,228.16759)"/>
<use xlink:href="#font_0_2b" transform="matrix(11.9552,0,0,-11.9552,414.201,228.04804)"/>
<use xlink:href="#font_0_26" transform="matrix(11.9552,0,0,-11.9552,417.5843,228.16759)"/>
<use xlink:href="#font_0_2c" transform="matrix(11.9552,0,0,-11.9552,423.31086,228.04804)"/>
<use xlink:href="#font_0_4" transform="matrix(11.9552,0,0,-11.9552,426.8137,231.03684)"/>
<use xlink:href="#font_0_28" transform="matrix(11.9552,0,0,-11.9552,432.4446,228.16759)"/>
<use xlink:href="#font_0_2f" transform="matrix(11.9552,0,0,-11.9552,437.58534,228.16759)"/>
<use xlink:href="#font_0_2e" transform="matrix(11.9552,0,0,-11.9552,443.46733,228.04804)"/>
<use xlink:href="#font_0_36" transform="matrix(11.9552,0,0,-11.9552,449.48078,228.16759)"/>
<use xlink:href="#font_0_7" transform="matrix(11.9552,0,0,-11.9552,456.03227,228.04804)"/>
<use xlink:href="#font_0_29" transform="matrix(11.9552,0,0,-11.9552,461.72294,228.16759)"/>
<path transform="matrix(1,0,0,-1,468.429,227.849)" stroke-width=".398" stroke-linecap="butt" stroke-miterlimit="10" stroke-linejoin="miter" fill="none" stroke="#000000" d="M 0 0 L 3.512 0 "/>
<use xlink:href="#font_0_7" transform="matrix(11.9552,0,0,-11.9552,472.52684,228.04804)"/>
<use xlink:href="#font_0_4" transform="matrix(11.9552,0,0,-11.9552,478.44465,231.03684)"/>
<use xlink:href="#font_0_1c" transform="matrix(11.9552,0,0,-11.9552,484.15925,228.29909)"/>
<use xlink:href="#font_0_2a" transform="matrix(11.9552,0,0,-11.9552,492.63548,228.16759)"/>
<use xlink:href="#font_0_2c" transform="matrix(11.9552,0,0,-11.9552,497.87187,228.04804)"/>
<use xlink:href="#font_0_35" transform="matrix(11.9552,0,0,-11.9552,501.1117,228.16759)"/>
<use xlink:href="#font_0_25" transform="matrix(11.9552,0,0,-11.9552,507.48384,231.03684)"/>
<use xlink:href="#font_0_f" transform="matrix(11.9552,0,0,-11.9552,511.52467,228.04804)"/>
<use xlink:href="#font_0_7" transform="matrix(11.9552,0,0,-11.9552,514.3222,228.04804)"/>
<path transform="matrix(1,0,0,-1,525.554,232.38202)" stroke-width=".398" stroke-linecap="butt" stroke-miterlimit="10" stroke-linejoin="miter" fill="none" stroke="#000000" d="M 0 0 L 0 14.446 "/>
<path transform="matrix(1,0,0,-1,527.546,232.38202)" stroke-width=".398" stroke-linecap="butt" stroke-miterlimit="10" stroke-linejoin="miter" fill="none" stroke="#000000" d="M 0 0 L 0 14.446 "/>
<path transform="matrix(1,0,0,-1,110.854,232.581)" stroke-width=".398" stroke-linecap="butt" stroke-miterlimit="10" stroke-linejoin="miter" fill="none" stroke="#000000" d="M 0 0 L 416.692 0 "/>
<path transform="matrix(1,0,0,-1,110.854,247.22602)" stroke-width=".398" stroke-linecap="butt" stroke-miterlimit="10" stroke-linejoin="miter" fill="none" stroke="#000000" d="M 0 0 L 0 14.446 "/>
<path transform="matrix(1,0,0,-1,112.847,247.22602)" stroke-width=".398" stroke-linecap="butt" stroke-miterlimit="10" stroke-linejoin="miter" fill="none" stroke="#000000" d="M 0 0 L 0 14.446 "/>
<symbol id="font_0_14">
<path d="M .53000006 .68100008 L 0 .68100008 L 0 .652 L .020000004 .652 C .092 .652 .095000009 .642 .095000009 .605 L .095000009 .076000008 C .095000009 .039 .092 .029000001 .020000004 .029000001 L 0 .029000001 L 0 0 C .024000004 .002 .11300001 .002 .143 .002 C .178 .002 .266 .002 .29500003 0 L .29500003 .029000001 L .26500003 .029000001 C .178 .029000001 .176 .041 .176 .07700001 L .176 .326 L .264 .326 C .358 .326 .368 .293 .368 .209 L .39000003 .209 L .39000003 .47200004 L .368 .47200004 C .368 .388 .358 .35500003 .264 .35500003 L .176 .35500003 L .176 .61200007 C .176 .64500007 .178 .652 .222 .652 L .347 .652 C .491 .652 .52000007 .59900006 .53400006 .45800004 L .556 .45800004 L .53000006 .68100008 Z "/>
</symbol>
<symbol id="font_0_1f">
<path d="M .52900007 .25100003 C .52900007 .111 .43400003 .029000003 .34 .029000003 C .28 .029000003 .176 .069000009 .176 .244 L .176 .6280001 C .176 .6650001 .17900002 .6750001 .25100003 .6750001 L .271 .6750001 L .271 .70400008 C .24700001 .7020001 .16500002 .7020001 .136 .7020001 C .106 .7020001 .024000004 .7020001 0 .70400008 L 0 .6750001 L .020000004 .6750001 C .092 .6750001 .095000009 .6650001 .095000009 .6280001 L .095000009 .25000004 C .095000009 .105000007 .211 0 .338 0 C .477 0 .556 .136 .556 .236 L .556 .6140001 C .556 .6750001 .633 .6750001 .651 .6750001 L .651 .70400008 C .625 .7020001 .57100006 .7020001 .54300007 .7020001 C .514 .7020001 .46000005 .7020001 .43400003 .70400008 L .43400003 .6750001 C .52900007 .6750001 .52900007 .6280001 .52900007 .6010001 L .52900007 .25100003 Z "/>
</symbol>
<symbol id="font_0_23">
<path d="M .591 .58900007 C .624 .642 .67 .65400007 .71300008 .65400007 L .71300008 .683 C .65700009 .68100008 .65500006 .68100008 .62000009 .68100008 C .59300008 .68100008 .54300007 .68100008 .518 .683 L .518 .65400007 C .54700008 .65400007 .568 .64100006 .568 .61700007 C .568 .60400006 .56600007 .601 .55600008 .58500006 L .38700003 .31 L .201 .611 C .19500001 .62100008 .193 .624 .193 .63000008 C .193 .651 .21900001 .65400007 .25500003 .65400007 L .25500003 .683 C .23200001 .68100008 .15100001 .68100008 .123 .68100008 C .095000009 .68100008 .024 .68100008 0 .683 L 0 .65400007 C .071 .65400007 .08400001 .651 .106000009 .615 L .31700004 .273 L .31700004 .076000008 C .31700004 .039 .314 .029000001 .242 .029000001 L .222 .029000001 L .222 0 C .24500002 .002 .32700003 .002 .35600005 .002 C .38500003 .002 .46700005 .002 .49100007 0 L .49100007 .029000001 L .47100006 .029000001 C .39800004 .029000001 .39600004 .039 .39600004 .074 L .39600004 .27400003 L .591 .58900007 Z "/>
</symbol>
<use xlink:href="#font_0_14" transform="matrix(11.9552,0,0,-11.9552,124.91617,242.893)"/>
<use xlink:href="#font_0_1f" transform="matrix(11.9552,0,0,-11.9552,132.55553,243.14406)"/>
<use xlink:href="#font_0_17" transform="matrix(11.9552,0,0,-11.9552,141.33065,242.893)"/>
<use xlink:href="#font_0_17" transform="matrix(11.9552,0,0,-11.9552,148.64723,242.893)"/>
<use xlink:href="#font_0_23" transform="matrix(11.9552,0,0,-11.9552,154.61289,242.893)"/>
<path transform="matrix(1,0,0,-1,163.971,242.693)" stroke-width=".398" stroke-linecap="butt" stroke-miterlimit="10" stroke-linejoin="miter" fill="none" stroke="#000000" d="M 0 0 L 3.512 0 "/>
<use xlink:href="#font_0_11" transform="matrix(11.9552,0,0,-11.9552,168.12859,243.14406)"/>
<use xlink:href="#font_0_1a" transform="matrix(11.9552,0,0,-11.9552,176.58092,243.14406)"/>
<use xlink:href="#font_0_19" transform="matrix(11.9552,0,0,-11.9552,185.53536,242.893)"/>
<use xlink:href="#font_0_19" transform="matrix(11.9552,0,0,-11.9552,194.31047,242.893)"/>
<use xlink:href="#font_0_13" transform="matrix(11.9552,0,0,-11.9552,203.08559,242.893)"/>
<use xlink:href="#font_0_11" transform="matrix(11.9552,0,0,-11.9552,211.20317,243.14406)"/>
<use xlink:href="#font_0_1e" transform="matrix(11.9552,0,0,-11.9552,219.42835,242.893)"/>
<use xlink:href="#font_0_13" transform="matrix(11.9552,0,0,-11.9552,227.95241,242.893)"/>
<use xlink:href="#font_0_12" transform="matrix(11.9552,0,0,-11.9552,235.92653,242.893)"/>
<use xlink:href="#font_0_d" transform="matrix(11.9552,0,0,-11.9552,269.75978,243.14406)"/>
<use xlink:href="#font_0_6" transform="matrix(11.9552,0,0,-11.9552,276.21559,242.893)"/>
<use xlink:href="#font_0_e" transform="matrix(11.9552,0,0,-11.9552,281.4759,243.14406)"/>
<use xlink:href="#font_0_7" transform="matrix(11.9552,0,0,-11.9552,287.4296,242.893)"/>
<use xlink:href="#font_0_5" transform="matrix(11.9552,0,0,-11.9552,293.19203,243.14406)"/>
<use xlink:href="#font_0_6" transform="matrix(11.9552,0,0,-11.9552,321.87257,242.893)"/>
<use xlink:href="#font_0_3" transform="matrix(11.9552,0,0,-11.9552,327.6828,242.893)"/>
<use xlink:href="#font_0_5" transform="matrix(11.9552,0,0,-11.9552,330.38468,243.14406)"/>
<use xlink:href="#font_0_b" transform="matrix(11.9552,0,0,-11.9552,336.24275,243.14406)"/>
<use xlink:href="#font_0_b" transform="matrix(11.9552,0,0,-11.9552,342.1008,243.14406)"/>
<use xlink:href="#font_0_1" transform="matrix(11.9552,0,0,-11.9552,348.11427,243.5625)"/>
<use xlink:href="#font_0_24" transform="matrix(11.9552,0,0,-11.9552,382.38984,245.8818)"/>
<use xlink:href="#font_0_33" transform="matrix(11.9552,0,0,-11.9552,384.64936,243.01256)"/>
<use xlink:href="#font_0_2a" transform="matrix(11.9552,0,0,-11.9552,389.22819,243.01256)"/>
<use xlink:href="#font_0_31" transform="matrix(11.9552,0,0,-11.9552,394.48847,245.21231)"/>
<use xlink:href="#font_0_35" transform="matrix(11.9552,0,0,-11.9552,400.63346,243.01256)"/>
<use xlink:href="#font_0_2a" transform="matrix(11.9552,0,0,-11.9552,407.11317,243.01256)"/>
<use xlink:href="#font_0_2e" transform="matrix(11.9552,0,0,-11.9552,412.3376,242.893)"/>
<use xlink:href="#font_0_34" transform="matrix(11.9552,0,0,-11.9552,418.35105,243.01256)"/>
<use xlink:href="#font_0_2b" transform="matrix(11.9552,0,0,-11.9552,423.08534,242.893)"/>
<use xlink:href="#font_0_26" transform="matrix(11.9552,0,0,-11.9552,426.46864,243.01256)"/>
<use xlink:href="#font_0_2c" transform="matrix(11.9552,0,0,-11.9552,432.1952,242.893)"/>
<use xlink:href="#font_0_4" transform="matrix(11.9552,0,0,-11.9552,435.69804,245.8818)"/>
<use xlink:href="#font_0_29" transform="matrix(11.9552,0,0,-11.9552,441.32896,243.01256)"/>
<use xlink:href="#font_0_2a" transform="matrix(11.9552,0,0,-11.9552,447.7728,243.01256)"/>
<use xlink:href="#font_0_2e" transform="matrix(11.9552,0,0,-11.9552,452.99723,242.893)"/>
<use xlink:href="#font_0_33" transform="matrix(11.9552,0,0,-11.9552,459.51283,243.01256)"/>
<use xlink:href="#font_0_2a" transform="matrix(11.9552,0,0,-11.9552,464.09165,243.01256)"/>
<use xlink:href="#font_0_4" transform="matrix(11.9552,0,0,-11.9552,469.57908,245.8818)"/>
<use xlink:href="#font_0_1c" transform="matrix(11.9552,0,0,-11.9552,475.29368,243.14406)"/>
<use xlink:href="#font_0_2a" transform="matrix(11.9552,0,0,-11.9552,483.7699,243.01256)"/>
<use xlink:href="#font_0_2c" transform="matrix(11.9552,0,0,-11.9552,489.0063,242.893)"/>
<use xlink:href="#font_0_35" transform="matrix(11.9552,0,0,-11.9552,492.24613,243.01256)"/>
<use xlink:href="#font_0_25" transform="matrix(11.9552,0,0,-11.9552,498.61827,245.8818)"/>
<use xlink:href="#font_0_f" transform="matrix(11.9552,0,0,-11.9552,502.6591,242.893)"/>
<use xlink:href="#font_0_b" transform="matrix(11.9552,0,0,-11.9552,505.36097,243.14406)"/>
<path transform="matrix(1,0,0,-1,525.554,247.22602)" stroke-width=".398" stroke-linecap="butt" stroke-miterlimit="10" stroke-linejoin="miter" fill="none" stroke="#000000" d="M 0 0 L 0 14.446 "/>
<path transform="matrix(1,0,0,-1,527.546,247.22602)" stroke-width=".398" stroke-linecap="butt" stroke-miterlimit="10" stroke-linejoin="miter" fill="none" stroke="#000000" d="M 0 0 L 0 14.446 "/>
<path transform="matrix(1,0,0,-1,110.854,247.42603)" stroke-width=".398" stroke-linecap="butt" stroke-miterlimit="10" stroke-linejoin="miter" fill="none" stroke="#000000" d="M 0 0 L 416.692 0 "/>
<path transform="matrix(1,0,0,-1,110.854,262.07106)" stroke-width=".398" stroke-linecap="butt" stroke-miterlimit="10" stroke-linejoin="miter" fill="none" stroke="#000000" d="M 0 0 L 0 14.446 "/>
<path transform="matrix(1,0,0,-1,112.847,262.07106)" stroke-width=".398" stroke-linecap="butt" stroke-miterlimit="10" stroke-linejoin="miter" fill="none" stroke="#000000" d="M 0 0 L 0 14.446 "/>
<use xlink:href="#font_0_14" transform="matrix(11.9552,0,0,-11.9552,124.91617,257.737)"/>
<use xlink:href="#font_0_1f" transform="matrix(11.9552,0,0,-11.9552,132.55553,257.98808)"/>
<use xlink:href="#font_0_17" transform="matrix(11.9552,0,0,-11.9552,141.33065,257.737)"/>
<use xlink:href="#font_0_17" transform="matrix(11.9552,0,0,-11.9552,148.64723,257.737)"/>
<use xlink:href="#font_0_23" transform="matrix(11.9552,0,0,-11.9552,154.61289,257.737)"/>
<path transform="matrix(1,0,0,-1,163.971,257.53804)" stroke-width=".398" stroke-linecap="butt" stroke-miterlimit="10" stroke-linejoin="miter" fill="none" stroke="#000000" d="M 0 0 L 3.512 0 "/>
<use xlink:href="#font_0_11" transform="matrix(11.9552,0,0,-11.9552,168.12859,257.98808)"/>
<use xlink:href="#font_0_1a" transform="matrix(11.9552,0,0,-11.9552,176.58092,257.98808)"/>
<use xlink:href="#font_0_19" transform="matrix(11.9552,0,0,-11.9552,185.53536,257.737)"/>
<use xlink:href="#font_0_19" transform="matrix(11.9552,0,0,-11.9552,194.31047,257.737)"/>
<use xlink:href="#font_0_13" transform="matrix(11.9552,0,0,-11.9552,203.08559,257.737)"/>
<use xlink:href="#font_0_11" transform="matrix(11.9552,0,0,-11.9552,211.20317,257.98808)"/>
<use xlink:href="#font_0_1e" transform="matrix(11.9552,0,0,-11.9552,219.42835,257.737)"/>
<use xlink:href="#font_0_13" transform="matrix(11.9552,0,0,-11.9552,227.95241,257.737)"/>
<use xlink:href="#font_0_12" transform="matrix(11.9552,0,0,-11.9552,235.92653,257.737)"/>
<use xlink:href="#font_0_a" transform="matrix(11.9552,0,0,-11.9552,275.70149,257.98808)"/>
<use xlink:href="#font_0_6" transform="matrix(11.9552,0,0,-11.9552,282.06166,257.737)"/>
<use xlink:href="#font_0_7" transform="matrix(11.9552,0,0,-11.9552,287.4176,257.737)"/>
<use xlink:href="#font_0_5" transform="matrix(11.9552,0,0,-11.9552,321.2628,257.98808)"/>
<use xlink:href="#font_0_3" transform="matrix(11.9552,0,0,-11.9552,327.67079,257.737)"/>
<use xlink:href="#font_0_5" transform="matrix(11.9552,0,0,-11.9552,330.37266,257.98808)"/>
<use xlink:href="#font_0_5" transform="matrix(11.9552,0,0,-11.9552,336.2307,257.98808)"/>
<use xlink:href="#font_0_c" transform="matrix(11.9552,0,0,-11.9552,342.24418,257.98808)"/>
<use xlink:href="#font_0_1" transform="matrix(11.9552,0,0,-11.9552,348.10224,258.4065)"/>
<use xlink:href="#font_0_24" transform="matrix(11.9552,0,0,-11.9552,377.34468,260.7258)"/>
<use xlink:href="#font_0_33" transform="matrix(11.9552,0,0,-11.9552,379.6042,257.85655)"/>
<use xlink:href="#font_0_2a" transform="matrix(11.9552,0,0,-11.9552,384.183,257.85655)"/>
<use xlink:href="#font_0_31" transform="matrix(11.9552,0,0,-11.9552,389.4433,260.0563)"/>
<use xlink:href="#font_0_35" transform="matrix(11.9552,0,0,-11.9552,395.5883,257.85655)"/>
<use xlink:href="#font_0_2a" transform="matrix(11.9552,0,0,-11.9552,402.068,257.85655)"/>
<use xlink:href="#font_0_2e" transform="matrix(11.9552,0,0,-11.9552,407.29243,257.737)"/>
<use xlink:href="#font_0_34" transform="matrix(11.9552,0,0,-11.9552,413.30589,257.85655)"/>
<use xlink:href="#font_0_2b" transform="matrix(11.9552,0,0,-11.9552,418.04017,257.737)"/>
<use xlink:href="#font_0_26" transform="matrix(11.9552,0,0,-11.9552,421.42347,257.85655)"/>
<use xlink:href="#font_0_2c" transform="matrix(11.9552,0,0,-11.9552,427.15003,257.737)"/>
<use xlink:href="#font_0_4" transform="matrix(11.9552,0,0,-11.9552,430.65287,260.7258)"/>
<use xlink:href="#font_0_29" transform="matrix(11.9552,0,0,-11.9552,436.28379,257.85655)"/>
<use xlink:href="#font_0_2a" transform="matrix(11.9552,0,0,-11.9552,442.72764,257.85655)"/>
<use xlink:href="#font_0_2e" transform="matrix(11.9552,0,0,-11.9552,447.95207,257.737)"/>
<use xlink:href="#font_0_33" transform="matrix(11.9552,0,0,-11.9552,454.46766,257.85655)"/>
<use xlink:href="#font_0_2a" transform="matrix(11.9552,0,0,-11.9552,459.04649,257.85655)"/>
<path transform="matrix(1,0,0,-1,464.56,257.53804)" stroke-width=".398" stroke-linecap="butt" stroke-miterlimit="10" stroke-linejoin="miter" fill="none" stroke="#000000" d="M 0 0 L 3.512 0 "/>
<use xlink:href="#font_0_6" transform="matrix(11.9552,0,0,-11.9552,469.1599,257.737)"/>
<use xlink:href="#font_0_4" transform="matrix(11.9552,0,0,-11.9552,474.57563,260.7258)"/>
<use xlink:href="#font_0_1c" transform="matrix(11.9552,0,0,-11.9552,480.29023,257.98808)"/>
<use xlink:href="#font_0_2a" transform="matrix(11.9552,0,0,-11.9552,488.76646,257.85655)"/>
<use xlink:href="#font_0_2c" transform="matrix(11.9552,0,0,-11.9552,494.00285,257.737)"/>
<use xlink:href="#font_0_35" transform="matrix(11.9552,0,0,-11.9552,497.24269,257.85655)"/>
<use xlink:href="#font_0_25" transform="matrix(11.9552,0,0,-11.9552,503.6148,260.7258)"/>
<use xlink:href="#font_0_f" transform="matrix(11.9552,0,0,-11.9552,507.65565,257.737)"/>
<use xlink:href="#font_0_c" transform="matrix(11.9552,0,0,-11.9552,510.5129,257.98808)"/>
<path transform="matrix(1,0,0,-1,525.554,262.07106)" stroke-width=".398" stroke-linecap="butt" stroke-miterlimit="10" stroke-linejoin="miter" fill="none" stroke="#000000" d="M 0 0 L 0 14.446 "/>
<path transform="matrix(1,0,0,-1,527.546,262.07106)" stroke-width=".398" stroke-linecap="butt" stroke-miterlimit="10" stroke-linejoin="miter" fill="none" stroke="#000000" d="M 0 0 L 0 14.446 "/>
<path transform="matrix(1,0,0,-1,110.854,262.27003)" stroke-width=".398" stroke-linecap="butt" stroke-miterlimit="10" stroke-linejoin="miter" fill="none" stroke="#000000" d="M 0 0 L 416.692 0 "/>
<path transform="matrix(1,0,0,-1,110.854,276.91505)" stroke-width=".398" stroke-linecap="butt" stroke-miterlimit="10" stroke-linejoin="miter" fill="none" stroke="#000000" d="M 0 0 L 0 14.446 "/>
<path transform="matrix(1,0,0,-1,112.847,276.91505)" stroke-width=".398" stroke-linecap="butt" stroke-miterlimit="10" stroke-linejoin="miter" fill="none" stroke="#000000" d="M 0 0 L 0 14.446 "/>
<symbol id="font_0_22">
<path d="M .36900003 .384 L .507 .58500006 C .524 .609 .55300006 .65300008 .648 .65400007 L .648 .683 C .605 .68100008 .59400007 .68100008 .543 .68100008 C .51600006 .68100008 .45200003 .68100008 .42900003 .683 L .42900003 .65400007 C .47 .651 .48299999 .62700006 .48299999 .61 C .48299999 .59900006 .47900004 .59300008 .47300003 .58400008 L .35300002 .40800003 L .21800001 .60800006 C .21500002 .61200007 .21100001 .619 .21100001 .624 C .21100001 .638 .23200001 .65400007 .268 .65400007 L .268 .683 C .244 .68100008 .165 .68100008 .136 .68100008 C .10800001 .68100008 .038000004 .68100008 .014 .683 L .014 .65400007 C .08900001 .65400007 .09900001 .64900007 .120000008 .61700007 L .307 .34 L .13900002 .095000009 C .12200001 .07 .09 .030000002 0 .029000001 L 0 0 C .043000007 .002 .054000006 .002 .105000007 .002 C .13200002 .002 .19700001 .002 .22000002 0 L .22000002 .029000001 C .178 .031000002 .165 .056 .165 .07300001 C .165 .08400001 .17 .091000009 .17600002 .1 L .323 .31500004 L .485 .07300001 C .491 .064 .49199999 .063 .49199999 .059000005 C .49199999 .047000003 .474 .030000002 .435 .029000001 L .435 0 C .45900003 .002 .537 .002 .566 .002 C .59400007 .002 .665 .002 .689 0 L .689 .029000001 C .63 .029000001 .606 .029000001 .583 .064 L .36900003 .384 Z "/>
</symbol>
<use xlink:href="#font_0_1d" transform="matrix(11.9552,0,0,-11.9552,155.05458,272.83207)"/>
<use xlink:href="#font_0_1a" transform="matrix(11.9552,0,0,-11.9552,161.55821,272.83207)"/>
<use xlink:href="#font_0_14" transform="matrix(11.9552,0,0,-11.9552,170.51265,272.581)"/>
<use xlink:href="#font_0_1e" transform="matrix(11.9552,0,0,-11.9552,178.08029,272.581)"/>
<use xlink:href="#font_0_18" transform="matrix(11.9552,0,0,-11.9552,186.64023,272.581)"/>
<use xlink:href="#font_0_10" transform="matrix(11.9552,0,0,-11.9552,197.20862,272.581)"/>
<use xlink:href="#font_0_22" transform="matrix(11.9552,0,0,-11.9552,205.87615,272.581)"/>
<use xlink:href="#font_0_6" transform="matrix(11.9552,0,0,-11.9552,276.2086,272.581)"/>
<use xlink:href="#font_0_6" transform="matrix(11.9552,0,0,-11.9552,282.06666,272.581)"/>
<use xlink:href="#font_0_7" transform="matrix(11.9552,0,0,-11.9552,287.4226,272.581)"/>
<use xlink:href="#font_0_5" transform="matrix(11.9552,0,0,-11.9552,321.2678,272.83207)"/>
<use xlink:href="#font_0_3" transform="matrix(11.9552,0,0,-11.9552,327.67579,272.581)"/>
<use xlink:href="#font_0_5" transform="matrix(11.9552,0,0,-11.9552,330.37767,272.83207)"/>
<use xlink:href="#font_0_5" transform="matrix(11.9552,0,0,-11.9552,336.23573,272.83207)"/>
<use xlink:href="#font_0_6" transform="matrix(11.9552,0,0,-11.9552,342.69154,272.581)"/>
<use xlink:href="#font_0_1" transform="matrix(11.9552,0,0,-11.9552,348.10725,273.2505)"/>
<use xlink:href="#font_0_24" transform="matrix(11.9552,0,0,-11.9552,419.27656,275.5698)"/>
<use xlink:href="#font_0_16" transform="matrix(11.9552,0,0,-11.9552,421.57194,272.581)"/>
<use xlink:href="#font_0_29" transform="matrix(11.9552,0,0,-11.9552,425.78016,272.70054)"/>
<use xlink:href="#font_0_2a" transform="matrix(11.9552,0,0,-11.9552,432.224,272.70054)"/>
<use xlink:href="#font_0_2e" transform="matrix(11.9552,0,0,-11.9552,437.44844,272.581)"/>
<use xlink:href="#font_0_34" transform="matrix(11.9552,0,0,-11.9552,443.46189,272.70054)"/>
<use xlink:href="#font_0_2b" transform="matrix(11.9552,0,0,-11.9552,448.19618,272.581)"/>
<use xlink:href="#font_0_34" transform="matrix(11.9552,0,0,-11.9552,451.26863,272.70054)"/>
<use xlink:href="#font_0_37" transform="matrix(11.9552,0,0,-11.9552,455.50077,275.01988)"/>
<use xlink:href="#font_0_25" transform="matrix(11.9552,0,0,-11.9552,461.7175,275.5698)"/>
<use xlink:href="#font_0_f" transform="matrix(11.9552,0,0,-11.9552,465.75834,272.581)"/>
<use xlink:href="#font_0_e" transform="matrix(11.9552,0,0,-11.9552,468.4602,272.83207)"/>
<path transform="matrix(1,0,0,-1,525.554,276.91505)" stroke-width=".398" stroke-linecap="butt" stroke-miterlimit="10" stroke-linejoin="miter" fill="none" stroke="#000000" d="M 0 0 L 0 14.446 "/>
<path transform="matrix(1,0,0,-1,527.546,276.91505)" stroke-width=".398" stroke-linecap="butt" stroke-miterlimit="10" stroke-linejoin="miter" fill="none" stroke="#000000" d="M 0 0 L 0 14.446 "/>
<path transform="matrix(1,0,0,-1,110.854,277.114)" stroke-width=".398" stroke-linecap="butt" stroke-miterlimit="10" stroke-linejoin="miter" fill="none" stroke="#000000" d="M 0 0 L 416.692 0 "/>
</g>
</svg>
